<svg width="25" height="24" viewBox="0 0 25 24" fill="none" xmlns="http://www.w3.org/2000/svg">
<path d="M12.2322 2.12839C15.3874 2.12839 15.7572 2.14413 17.0004 2.1992C18.1531 2.25035 18.7747 2.44312 19.1918 2.60836C19.7465 2.82474 20.1399 3.07652 20.5491 3.48961C20.9621 3.9027 21.2179 4.29612 21.4303 4.8469C21.5877 5.26393 21.7883 5.88552 21.8395 7.03824C21.8945 8.28537 21.9103 8.65518 21.9103 11.8065C21.9103 14.9577 21.8945 15.3315 21.8395 16.5747C21.7883 17.7274 21.5955 18.349 21.4303 18.766C21.2139 19.3207 20.9621 19.7141 20.5491 20.1233C20.136 20.5364 19.7425 20.7921 19.1918 21.0046C18.7747 21.1619 18.1531 21.3626 17.0004 21.4137C15.7533 21.4688 15.3835 21.4845 12.2322 21.4845C9.08094 21.4845 8.70719 21.4688 7.46399 21.4137C6.31128 21.3626 5.68968 21.1698 5.27266 21.0046C4.71794 20.7882 4.32452 20.5364 3.91537 20.1233C3.50228 19.7102 3.24656 19.3168 3.03411 18.766C2.87674 18.349 2.6761 17.7274 2.62496 16.5747C2.56988 15.3275 2.55414 14.9577 2.55414 11.8065C2.55414 8.65518 2.56988 8.28144 2.62496 7.03824C2.6761 5.88552 2.86888 5.26393 3.03411 4.8469C3.25049 4.29218 3.50228 3.89877 3.91537 3.48961C4.32845 3.07652 4.72187 2.8208 5.27266 2.60836C5.68968 2.45099 6.31128 2.25035 7.46399 2.1992C8.71112 2.14019 9.08487 2.12839 12.2322 2.12839ZM12.2322 0C9.02586 0 8.62457 0.0157367 7.36564 0.0708151C6.11063 0.125894 5.25299 0.330471 4.50156 0.617665C3.72259 0.916663 3.06952 1.32582 2.41251 1.98282C1.7555 2.63983 1.35422 3.30077 1.04735 4.07187C0.756224 4.8233 0.555581 5.68095 0.500503 6.93988C0.445424 8.19489 0.429688 8.60011 0.429688 11.8025C0.429688 15.0049 0.445424 15.4102 0.500503 16.6691C0.555581 17.9241 0.760158 18.7817 1.04735 19.5371C1.34635 20.3161 1.7555 20.9692 2.41251 21.6262C3.06952 22.2832 3.73046 22.6845 4.50156 22.9913C5.25299 23.2824 6.1067 23.4831 7.36957 23.5382C8.62851 23.5932 9.02979 23.609 12.2361 23.609C15.4425 23.609 15.8438 23.5932 17.1027 23.5382C18.3577 23.4831 19.2154 23.2785 19.9707 22.9913C20.7497 22.6923 21.4028 22.2832 22.0598 21.6262C22.7168 20.9692 23.1181 20.3082 23.4249 19.5371C23.7161 18.7857 23.9167 17.928 23.9718 16.6691C24.0269 15.4102 24.0426 15.0089 24.0426 11.8025C24.0426 8.59617 24.0269 8.19489 23.9718 6.93595C23.9167 5.68095 23.7161 4.8233 23.4249 4.06794C23.1259 3.28897 22.7168 2.6359 22.0598 1.97889C21.4028 1.32188 20.7418 0.920597 19.9707 0.613731C19.2193 0.322602 18.3656 0.121959 17.1027 0.066881C15.8359 0.0157367 15.4346 0 12.2283 0L12.2322 0Z" fill="black"/>
<path d="M12.2315 5.74268C8.88746 5.74268 6.16895 8.45726 6.16895 11.8052C6.16895 15.1532 8.88353 17.8678 12.2315 17.8678C15.5795 17.8678 18.2941 15.1532 18.2941 11.8052C18.2941 8.45726 15.5795 5.74268 12.2315 5.74268ZM12.2315 15.7355C10.0559 15.7355 8.29733 13.973 8.29733 11.8013C8.29733 9.62964 10.0598 7.86713 12.2315 7.86713C14.4032 7.86713 16.1657 9.62964 16.1657 11.8013C16.1657 13.973 14.4032 15.7355 12.2315 15.7355Z" fill="black"/>
<path d="M18.5335 6.91415C19.3164 6.91415 19.9498 6.28075 19.9498 5.49785C19.9498 4.71494 19.3164 4.08154 18.5335 4.08154C17.7506 4.08154 17.1172 4.71494 17.1172 5.49785C17.1172 6.28075 17.7506 6.91415 18.5335 6.91415Z" fill="black"/>
</svg>
