<svg width="32" height="26" viewBox="0 0 32 26" fill="none" xmlns="http://www.w3.org/2000/svg">
<g clip-path="url(#clip0_19_956)">
<path d="M10.7873 25.1874C22.1053 25.1874 28.2975 15.8083 28.2975 7.67727C28.2975 7.41359 28.2916 7.14406 28.2799 6.88039C29.4845 6.00927 30.524 4.93026 31.3496 3.69406C30.2278 4.19319 29.0367 4.51917 27.817 4.66086C29.1012 3.89107 30.0628 2.68178 30.5234 1.25715C29.3153 1.97314 27.9941 2.4782 26.6164 2.7507C25.6882 1.76439 24.4608 1.11133 23.1242 0.892503C21.7876 0.673671 20.4161 0.901252 19.2218 1.54006C18.0275 2.17887 17.0769 3.19332 16.5169 4.42658C15.957 5.65984 15.8189 7.04321 16.124 8.36281C13.6777 8.24005 11.2845 7.60457 9.09959 6.49756C6.91464 5.39056 4.98673 3.83674 3.44082 1.93684C2.65511 3.29149 2.41468 4.8945 2.7684 6.42005C3.12212 7.94561 4.04344 9.27925 5.34512 10.1499C4.36789 10.1189 3.41208 9.85579 2.55664 9.38234V9.45852C2.55577 10.8801 3.04723 12.2582 3.9475 13.3584C4.84776 14.4586 6.10126 15.2131 7.49492 15.4937C6.58968 15.7414 5.63959 15.7774 4.71816 15.5991C5.11143 16.8217 5.87658 17.8911 6.90682 18.6579C7.93707 19.4247 9.18101 19.8507 10.465 19.8765C8.28514 21.5888 5.59233 22.5176 2.82031 22.5132C2.32872 22.5125 1.83761 22.4823 1.34961 22.423C4.16568 24.2296 7.44152 25.1892 10.7873 25.1874Z" fill="black"/>
</g>
<defs>
<clipPath id="clip0_19_956">
<rect width="31" height="26" fill="white" transform="translate(0.783203)"/>
</clipPath>
</defs>
</svg>
