<svg width="32" height="23" viewBox="0 0 32 23" fill="none" xmlns="http://www.w3.org/2000/svg">
<g clip-path="url(#clip0_19_958)">
<path d="M26.7459 1.89552C24.8338 1.01816 22.7833 0.37177 20.6395 0.00155301C20.6004 -0.00559206 20.5614 0.0122639 20.5413 0.0479765C20.2776 0.516995 19.9855 1.12887 19.781 1.6098C17.4751 1.26459 15.1811 1.26459 12.9225 1.6098C12.7179 1.11818 12.4152 0.516995 12.1503 0.0479765C12.1302 0.0134554 12.0912 -0.00440051 12.0522 0.00155301C9.9095 0.370587 7.85906 1.01698 5.94578 1.89552C5.92921 1.90266 5.91502 1.91457 5.9056 1.93004C2.01635 7.74049 0.950922 13.4081 1.47358 19.0055C1.47595 19.0329 1.49132 19.0591 1.51261 19.0757C4.07862 20.9601 6.56424 22.1042 9.00371 22.8624C9.04275 22.8744 9.08412 22.8601 9.10896 22.8279C9.68602 22.0399 10.2004 21.209 10.6415 20.3352C10.6675 20.284 10.6426 20.2233 10.5894 20.203C9.77352 19.8935 8.99661 19.5162 8.24927 19.0876C8.19016 19.0531 8.18543 18.9686 8.23981 18.9281C8.39707 18.8102 8.55438 18.6876 8.70455 18.5638C8.73172 18.5412 8.76958 18.5364 8.80152 18.5507C13.7112 20.7923 19.0265 20.7923 23.8783 18.5507C23.9102 18.5353 23.9481 18.54 23.9765 18.5626C24.1267 18.6864 24.2839 18.8102 24.4424 18.9281C24.4968 18.9686 24.4932 19.0531 24.4341 19.0876C23.6868 19.5245 22.9098 19.8935 22.0927 20.2019C22.0396 20.2221 22.0159 20.284 22.0419 20.3352C22.4924 21.2077 23.0068 22.0387 23.5732 22.8267C23.5969 22.8601 23.6394 22.8744 23.6785 22.8624C26.1298 22.1042 28.6154 20.9601 31.1814 19.0757C31.2039 19.0591 31.2181 19.0341 31.2204 19.0067C31.846 12.5355 30.1727 6.91435 26.7849 1.93122C26.7766 1.91457 26.7624 1.90266 26.7459 1.89552ZM11.3746 15.5973C9.89648 15.5973 8.67852 14.2402 8.67852 12.5736C8.67852 10.907 9.87286 9.54995 11.3746 9.54995C12.8882 9.54995 14.0944 10.9189 14.0707 12.5736C14.0707 14.2402 12.8764 15.5973 11.3746 15.5973ZM21.343 15.5973C19.8649 15.5973 18.647 14.2402 18.647 12.5736C18.647 10.907 19.8413 9.54995 21.343 9.54995C22.8567 9.54995 24.0628 10.9189 24.0392 12.5736C24.0392 14.2402 22.8567 15.5973 21.343 15.5973Z" fill="black"/>
</g>
<defs>
<clipPath id="clip0_19_958">
<rect width="31" height="23" fill="white" transform="translate(0.783203)"/>
</clipPath>
</defs>
</svg>
