<?xml version="1.0" encoding="utf-8"?>
<!-- Generator: Adobe Illustrator 26.5.0, SVG Export Plug-In . SVG Version: 6.00 Build 0)  -->
<svg version="1.1" id="Layer_1" xmlns="http://www.w3.org/2000/svg" xmlns:xlink="http://www.w3.org/1999/xlink" x="0px" y="0px"
	 viewBox="0 0 1694.3 718.7" style="enable-background:new 0 0 1694.3 718.7;" xml:space="preserve">
<style type="text/css">
	.st0{fill:#E03F83;}
	.st1{fill:#FBA6CA;}
</style>
<g id="s4tdus.tif_00000109024374930905161220000012704734216333897389_">
	<g>
		<path class="st0" d="M1533.2,395l3.5-3.1c33.4-29.6,57.6-50.9,86.7-82.4c29.8-32.1,38-63.4,39.7-84c2.3-28.5-14.1-36.6-36.8-47.8
			c-2.1-1-4.3-2.1-6.7-3.3c-37.5-18.8-35.8-39.2-34-60.9c0.1-1.7,0.3-3.4,0.4-5.1c0.9-13.2-3.6-22.6-13.6-27.9
			c-7.3-3.8-15.7-4.5-25.6-5.3c-2-0.2-4-0.3-6-0.5c-16-1.5-48.3-1.8-64.2-1c-2.5,0.1-4.9,0.2-7.3,0.3c-20.9,0.9-40.7,1.7-63.7,12.8
			c-18.7,9-30.8,23.3-41.2,36.7c0.6-6.6,1.5-13.2,2.3-19.1c1-6.6,1.3-14.2-3.4-20.8c-5.6-7.8-13.8-8-19.3-8.1
			c-7.7-0.2-30.6-0.6-48.9-0.6h-2.7c-23.5,0-47.8,0-56.6,1c-10.9,1.2-15.4,6.8-17.3,11.4c-2.7,6.5-1.1,12.4-0.3,15.6l0.1,0.4
			c2.1,7.3,4.4,12.6,6.7,17.7c1.5,3.5,3.1,7.1,4.7,11.6c5.5,15.4,6.6,31.1,2.9,42.1c-3.1,9.1-7.9,15.5-14.4,23.6
			c-24.6,30.6-32.3,56.9-23.4,80.2c3.6,9.4,8.6,16.5,14.9,21.1c-10.9,3.7-20.1,8.4-26.3,11.9c-5.7,3.3-20.4,11-32.5,12.3
			c-9.9,1.1-15.9-2-20-10.3c-5.9-11.9-4.8-23.5,3.1-33.6c15.4-19.6,31.4-40.9,42.5-67.2c16.1-38,13.7-74.8-6.5-103.5
			c-14.3-20.2-43.8-34.1-72.4-34.1c-0.6,0-1.2,0-1.8,0c-30.3,0.6-50.2,7.3-68.8,23.2c-8.5,7.2-17.1,17.3-23,25
			c0.5-7.4,1.2-15,2.2-21.7c1.1-8-0.3-14.3-4.4-19.1c-6.1-7.3-15.5-7.7-20.6-7.9c-11.9-0.5-35.6-0.6-52.4-0.6c-4.9,0-10,0-15.1,0
			c-19.2,0-37.3-0.1-46.1,0.5c-6.6,0.5-12.3,3.2-15.9,7.7c-2.5,3.1-5.3,8.4-4.2,16.4c0.5,3.9,2.2,9.7,5.2,19.5
			c2.9,9.5,6.4,21.4,8.4,31.2c3.8,19,7.6,41.4,6,63.6c-2,29.4-9.8,54.2-24.5,78c-11.5,18.7-26.7,35.7-38.9,49.4
			c-5,5.6-9.6,10.8-13.6,15.6c-11.5,14-22.1,30-22,52.6c0.1,14.4,4.5,27,12,34.7c-0.4,0.1-0.8,0.3-1.1,0.4
			c-10.3,4.1-25.1,13.8-39.5,23.2c-7.7,5.1-15,9.8-21.1,13.4c-8.5,5-14.2,7.5-19.7,8.6c-8.8,1.7-18.4-10.9-20.2-16.9
			c-5.5-17.7-1.8-34.9,11-51c7.1-9,18.9-18.7,35-28.9c1.4-0.9,2.9-1.8,4.3-2.7c11.8-7.4,22.9-14.4,32.2-24.4
			c21.1-22.7,26.6-52.6,15.9-86.4c-2.9-9.1-5.6-14.9-8.8-18.9c-6.7-8.4-14.6-10.5-26.7-7c-17.4,5.1-43.7,9.2-61.1,9.5
			c-22.9,0.4-35.7-1.7-46.3-4.2c-8-1.9-18.1-4.2-25.8,3.3c-5.4,5.3-7,12.4-4.7,21.1l0.4,1.7c5.1,19.2,8,29.8,5.1,42.8
			c-4.7,21.6-11.5,30.8-30.8,46.4c0.7-10-3.9-19.2-10.1-30.6c-6.7-12.2-19.8-28.6-36.3-37.8c-21.2-11.8-48.5-10.4-73.2,3.7
			c-14.4,8.3-31.1,24-45.8,37.9c-9,8.5-17.5,16.5-22.9,20.3c-22.5,15.7-47.4,20.1-76.1,13.2c-20.8-5-40.3-23.9-46.3-45.1
			c-4-13.9-4.7-24.8-2.3-32.3c0.7-2.3,1.5-4.3,2.6-6.1c-1.5,8.2-0.8,20.2,8,35.4c6.8,11.8,17.2,20.4,31.7,26.3
			c21.6,8.8,57.1,9.7,82.9-5.6c18.6-11.1,27.5-29.7,35.4-46.2c1.1-2.3,2.2-4.5,3.2-6.7c1.3-2.6,2.6-5.2,3.9-7.9
			c3.2-6.5,6.5-13.3,9.5-18.8c6.5-11.8,27.2-22.5,41-29.6c1.9-1,3.8-2,5.5-2.9c7.6-4,12.3-10.4,13.1-17.8c0.8-6.9-2-13.7-7.4-18.4
			c-3-2.6-6.5-5.1-10-7.5c-1.6-1.2-3.3-2.3-4.9-3.5c-23.5-17.5-33.8-32.3-38-54.7c-1.3-6.8-1.3-13.6-0.1-20.2
			c0.5-2.9,1.8-7.4,3.3-10.3c1.7-3.3,7-13.2,1.1-23.1c-4.6-7.8-12.8-9-15.5-9.3c-2.1-0.3-6-0.6-8.5-0.7c-22.2-0.7-65.7-0.5-87.9-0.1
			h-0.3c-27.1,0.4-46.4,0.8-52.4,1.7c-13.3,1.9-20.5,12.1-18.8,26.4v0.2c1.8,13.4,1.1,25-2,33.4c-5.4,14.5-15.2,24.1-31.6,31.1
			c-8.4,3.5-16.2,6.2-24.6,9.1c-5.3,1.8-10.9,3.7-16.6,5.9c-44.5,16.7-69.1,33.9-79.9,81.5c-3.9,17.4-8.4,56.3-3.5,86.7
			c3.2,19.8,6.9,40.7,14.9,61.4c-8.8-1.9-18.3,0.8-27.3,8.1c-15.4,12.3-29.7,30.4-38.4,48.4c-8,16.5-16.6,36.7-19.7,61.9
			c-3.1,25.2-0.4,52.7,8.3,83.9c6.4,22.9,15.8,43.5,27.2,59.7c9.7,13.8,19.8,20,37.2,23c8.5,1.5,18.9,1.6,38.9,1.6h416
			c17.6,0,22.6-9.9,23.7-18.2c0.1-0.4,0.1-0.8,0.1-1.3c0.7,0.5,1.5,0.9,2.1,1.3c4.9,2.9,13,7.2,23.9,11c13.7,4.7,31.3,7.1,52.4,7.1
			h141.5c13.6,0,19.3-7,21.8-12.8c0.7-1.6,1.1-3.1,1.4-4.7c2,1.4,3.9,2.7,5.7,3.9c14.3,9.1,26.6,11.4,37.7,12.6c8.8,1,36.9,1,70,1
			h109c7.5,0,14-3.8,18.4-10.6c1.2-1.8,2-3.7,2.6-5.6c13.4,10.7,25.6,12.8,33.1,14.1c0.6,0.1,1.2,0.2,1.7,0.3
			c9.2,1.7,24.4,1.8,37.9,1.8h157.2c4.3,0,15.7,0,21.8-9.7c1-1.5,2-3.7,2.6-6.4c4,3.1,7.8,5.7,11.7,7.9c12.3,6.9,23.1,8.1,41.3,8.1
			h227.4c4.6,0,18.5,0,24.2-11.9c4.5-9.6,1.3-19.2-9.6-28.5l-1.9-1.6c-28.5-24.3-51.1-43.5-72.4-65.9
			c-15.9-16.7-29.9-36.3-40.4-56.6c-13.8-26.5-18.2-52-13.2-75.7C1498,435.5,1511.4,414.2,1533.2,395z M1329.2,383
			c4.9,2.6,10.5,3.9,16.7,3.9c-5.3,3.4-10.9,7.1-16.4,10.8C1330.2,393.3,1330.1,388.4,1329.2,383z M333.7,508.4
			c-2.7,3-5,6.2-7.2,9.6c-3.3,5.1-5.6,10.4-6.9,16.2c-3.5-7.5-8.5-13.2-15-17.2c3-0.6,5.9-1.3,8.6-2
			C320.4,512.9,327.2,510.8,333.7,508.4z"/>
		<path class="st0" d="M778.7,121.8c-38.9-10.7-53.2-19.2-61.4-48.7c-2.2-8-4.5-18.4-6-25.6l-0.5-2.4c-0.9-4-1.3-6.1-1.7-7.4
			c-1.1-3.5-4.5-14.2-16.8-14.7c-12.8-0.5-16.6,10.8-17.5,14.3c-3.8,14.4-8.1,27.1-13.9,41.4c-8.2,19.9-16.2,32.7-59.2,42.9
			c-4.7,1.1-18.9,4.4-18,19.6c0.7,11.1,11.2,15.4,15.2,16.9l0.9,0.3c1.1,0.4,2.2,0.9,3.6,1.5c10.7,4.2,30.7,12.1,42.3,23.7
			c11.2,11,14.8,21.1,18.9,35.2c3.1,10.9,5.2,18.8,6.2,23.6c1.5,7.4,7.1,16,17.9,16c8.8,0,15.8-5.6,18.1-14.7
			c0.4-1.6,0.8-3.3,1.2-4.9c0.4-1.7,0.8-3.4,1.2-5.1l0.2-1c2-8.5,4-17.4,7.3-24.1c8.2-17.2,20.7-30,39.2-40.3
			c8.1-4.3,17.3-7.7,23.2-9.4c5.8-1.8,15.7-6.4,16.1-17.8C795.6,131.6,789.8,124.8,778.7,121.8z"/>
	</g>
	<g>
		<path class="st1" d="M994.4,152.9c5.2,1,6.7-3.7,12.4-13c2.9-4.7,15.8-22,28-32.4c16.4-14,33.9-19.7,61.3-20.3
			c23.1-0.5,50.7,10,64.1,29c19.4,27.6,18.2,61.4,5.3,91.9c-10.9,25.7-27.3,47.2-40.9,64.5c-11.3,14.3-12.2,30.8-4.4,46.4
			c6.1,12.2,16.5,18.6,32.1,16.9c12.5-1.3,27-8.1,37.1-13.8c11.1-6.3,29.7-14.8,48.2-16.1c11.7-0.8,22.9,2.1,33.1,8.7
			c12.5,8.2,22.7,19.3,29.6,30.2c16.8,26.2,22.6,50.2,13.6,59.2c-14.1,14.1-42,38.2-55.3,60c-16,26.4-20.6,48-20.8,69.7
			c-0.3,43.3,23.7,76.6,36.1,92.7c14.6,18.8,30.4,34.9,36.3,42c4.3,5.2,5.8,10.1,3.4,13.9c-2,3.2-5.8,4.1-11.6,4.1
			c-26.4,0-119.8,0-157.2,0c-11.9,0-27.4-0.1-35.7-1.6c-6.9-1.3-18-2.4-30.5-12.8c-17.3-14.4-42.1-38.1-48-56.8
			c-6.5-20.8-0.6-37,11.1-49.3c11.6-12.1,33.1-22.4,48.6-33.8c29.4-21.6,42.7-45.2,41.9-78.2c-0.8-33.6-25.2-60.9-61.7-57.6
			c-29.2,2.6-71.8,38.7-96.3,51c-9.2,4.6-20.1,7.8-31.3,5.1c-9.7-2.4-16.6-9.7-19.4-18c-6.4-19.1-1.7-34.3,12.8-50.2
			c10.3-11.3,25.7-23.3,32.6-30c34.7-33.8,30.6-66.7,31.1-83c0.3-10.3,2.9-13.7,11.8-18.1c6-2.9,11.1-5.1,14.8-7.4
			c3.3-2,3.8-4,2.6-6.4c-1.5-3.1-4.6-2.8-7.5-1.4c-2.5,1.2-7.2,3.4-12,5.3c-13.2,5.3-17.9,4.1-29.1-3.4c-3-2-8.6-5.6-10.3-6.3
			s-3.7-0.9-5.4,1.4c-2,2.7-0.6,5,0.8,6.3c2.2,2.1,9.7,7.3,13.5,10.4c6,4.9,7.4,8.3,7.8,19.2c0.6,15.8,1,42.7-20.8,67.5
			c-8.8,10-25.6,22.5-36.7,34.2c-10.4,11-18,21.8-20.8,33c-1.7,6.9-2.8,17.1,0,27.8c6.5,24.2,25.4,34.9,44.2,33.5
			c10.6-0.8,18.4-2.8,29.3-9.2c18.1-10.7,54.8-36.8,76.7-45.3c15.6-6.1,29.5-3.2,39.5,2.5c8.5,4.9,12.7,12.2,14.8,15.9
			c3.7,6.7,7.1,19,6.1,31.3c-2.4,31.7-20.2,48.6-43.2,64.8c-8.9,6.3-37.3,22.4-48.3,35.6c-10.2,12.2-14.9,26.8-12.9,43.1
			c2.4,20.2,16.3,35.9,26.7,47.7c3.3,3.7,11.8,12.2,15.4,16.2c4.1,4.5,4.9,8.1,2.5,12c-1.9,3-4.6,5.1-8.3,5.1
			c-15.3,0-71.5,0-109.1,0c-30.5,0-60.4-0.1-68.7-1c-11.4-1.2-21.2-3.6-32.5-10.8S811.3,652,801,636.4c-9.4-14.3-11.7-31.4-9.2-44.3
			c2.5-12.8,10-21.9,22.6-31.4c12.3-9.3,25-20.2,32.5-31.2c8.1-11.8,9.8-21,8.1-36.5c-1.6-15.2-9.9-27.9-16-35.3
			c-6.7-8.1-17.8-15.3-28-17c-10.5-1.7-15.7-1.1-19.6-3.7c-7.3-4.8-11.1-17.3-11.1-28.6c-0.1-19.4,9.9-33.5,19.2-44.9
			c13.5-16.4,36.5-39.1,53.4-66.3c17.4-28.2,24.4-55.9,26.3-83.5c1.6-23.3-2.1-46.2-6.2-66.8c-3.8-18.8-12.5-42.8-13.5-50
			c-1-7.1,3.6-10.1,9.1-10.5c10.5-0.8,37.2-0.5,60.3-0.5c19.6,0,41.5,0.2,51.9,0.6c8.9,0.3,15.1,1.8,13.5,13.3
			c-1.9,14-3,30.2-2.8,41.8C991.5,148.6,991.6,152.3,994.4,152.9z"/>
		<path class="st1" d="M330,553c-0.5-12.4,1.7-20.8,6.7-28.6c7.9-12.4,18-19.8,31.7-29.2c13.4-9.2,30.6-20.9,44.5-34.4
			c6.6-6.3,12.8-14.5,16.8-22.5c1.4-2.7,2.4-7.2-1.7-9.5c-3.8-2.1-6.4-0.5-7.9,1.7c-15.8,23.1-38.3,39.7-53.2,48.4
			c-14.9,8.7-30.7,17.1-57,24.4c-22.5,6.3-56,6-85.5-2.5C211,497,198,490.6,187.6,483c-10.4-7.7-25.3-22.8-34.2-34.5
			c-25.3-33.4-31.6-66.3-36.9-99.8c-4.5-27.9-0.7-64.5,3.4-82.1c9.5-41.9,30-57.1,72.4-73c14.5-5.4,27.4-9.1,41.7-15.2
			c18.4-7.8,31.1-19.2,38.1-37.9c3.9-10.3,4.8-23.9,2.7-39.3c-0.9-7.6,1.4-12.1,8.6-13.1c6.4-0.9,36.7-1.4,51.1-1.6
			c22-0.3,65.4-0.6,87.3,0.1c2.2,0.1,5.5,0.3,7.2,0.6c3.7,0.5,5.7,1.6,6.9,3.6c1.7,2.9,1.4,6.1-1.4,11.4c-2.4,4.5-3.9,10.4-4.6,13.8
			c-1.5,8.5-1.3,16.8,0.1,24.6c5.1,27.1,18.1,43.8,42.7,62.1c4.9,3.6,10.2,7.1,14.2,10.5c4.7,4.1,5.2,11.9-3.5,16.5
			c-15.7,8.3-42.2,20.6-51.4,37.3c-4.4,8-9.1,18.1-13.6,27.2c-8.4,16.9-16.1,37.3-34,47.9c-21.8,12.9-53.4,12.5-72.3,4.8
			c-10.7-4.4-19.8-10.7-25.8-21.2c-11.9-20.5-6.8-35.5,2-40.3s31.4-7.8,47.9-18.9c9-6,14.2-12.6,16.6-24.7c2.6-13.3,3-14.8,15.2-19
			c13.8-4.8,14.8-7.6,13-11.2c-1.4-2.7-4.5-2.3-8.4-0.9c-9.5,3.7-17,5.4-24.1,4.7c-7.1-0.8-13.7-3.9-22.7-9.7
			c-2.1-1.4-5.7-2.5-7.9-0.5c-3.5,3-1.8,6.7,8.5,12.3c10.6,5.8,12.8,6.6,14.8,11.5s1,11.6-2.2,17.9c-5.3,10.5-17.4,15.1-24.3,17.6
			c-10.2,3.7-21.3,5.9-32.9,9.8c-18.2,6.2-23.9,13-27.6,24.6c-3.6,11.2-1.7,25.4,2.2,39.2c6.9,24.4,29.6,47.4,55.1,53.5
			c30.9,7.4,59.4,3.4,85.8-15.1c15.2-10.6,45.7-44.9,67.8-57.6c23.6-13.5,46.3-12,61.3-3.7c13.3,7.4,25.1,21.2,31.7,33.1
			c6.9,12.5,10,19.7,8.2,27.1c-1.3,5.2-4.9,8.3-14.2,16.2c-9.7,8.2-21.7,18.3-31.1,26.7c-20.9,18.8-37.3,43.5-44.5,62.9
			c-3.7,10.1-5.2,23.6-5.8,36.1c-1.4,32.5,12.1,60.1,30,83c17.9,22.9,52.7,55.1,65.2,66.5c3.6,3.3,8.6,7.3,8,11.9
			c-0.9,6.7-5.5,7.8-11.9,7.8c-5.7,0-86.5,0-143.4,0c-34.8,0-193.1,0-272.6,0c-19.7,0-29.4-0.2-36.9-1.5
			c-14.7-2.6-21.9-7.5-29.5-18.1c-3.8-5.4-16.5-24-25.5-56c-18.2-63.9-7-101.1,10.4-137.1c8.3-17.1,21.7-33.5,35.2-44.3
			c9.1-7.3,18.1-8.3,25.4-1c6.6,6.6,18.8,41.4,58,68.5c15.7,10.9,36.1,16.5,54.7,20.2c16.4,3.3,35.9,3.4,47.5,5.4
			c14.2,2.4,22.5,9.8,26.4,24.8c2.5,9.6,5.4,22.2,7.5,31.8c1,4.6,1.8,7.4,2.4,9c0.9,2.4,2.5,4.7,7,4c4.7-0.8,5.2-4.5,5.1-7.2
			C333.3,580.4,330.5,565.6,330,553z"/>
		<path class="st1" d="M1506.7,223c0.5-3.3-1.1-4.8-6.7-6.4c-22.9-6.5-26.8-6.2-38.2-29.5c-1.6-3.3-4.2-7.3-8.7-5.4
			c-3.6,1.5-3.4,4.7-1.9,8.3c1.5,3.5,3.4,7.5,5.3,11.4c3.7,7.6,5.4,12.9,0.3,16.3c-6.3,4.2-14.8,10.5-19,16.6
			c-6.4,9.3-8.5,20.3,2.6,35.8c5.1,7.2,12.3,17.1,11.2,30.9c-1.2,16.3-21,29.1-33.4,37.4c-15.3,10.2-32.6,24.9-54.5,32.9
			c-6.9,2.5-23.2,8-34.1-2.6c-6.6-6.5-10.3-17.7-15.9-27.3c-8-13.7-20.8-29.2-36.3-39c-15.8-10-28.7-9.6-42.8-8.3
			c-12.1,1.1-22.2-2.8-28.7-19.7c-8.7-22.9,4.9-47.7,21.5-68.4c6.5-8.1,12.6-16,16.4-27.3c5.2-15.3,2.6-34.6-3-50
			c-4.1-11.4-7.8-17.4-11.1-28.6c-0.7-2.5-1.4-5.2-0.3-8c1.4-3.4,5.5-3.8,7.5-4.1c8.5-0.9,35-0.9,58-0.9c17.5,0,40.4,0.3,48.6,0.6
			c4.9,0.1,7.8,0.4,9.8,3.1c2,2.8,2,6.9,1.3,12.1c-1.4,9.6-3.1,22.4-3.1,34.1c0,6.4,0.6,14.4,3.7,14.6c3.1,0.2,5.4-3.9,6.2-4.8
			c13.6-16.2,25.9-37.6,49.2-48.9c23.3-11.2,43.7-10.8,66.4-11.9c15.4-0.8,47.3-0.4,62.5,1c20.1,1.9,35.8,0.8,34.4,20.9
			c-1.6,23-8,53.5,40.2,77.6c26.9,13.5,38.7,17,36.9,39.4c-1.9,23.9-12.7,51.1-36.5,76.8c-29.8,32.1-54,53.4-89.4,84.6
			c-46.4,41.1-60.4,93.8-29.5,153.4c12.1,23.4,27.3,43.5,42.4,59.3c22.3,23.4,45.1,42.7,75.2,68.3c4.5,3.9,9.2,8.6,6.6,14.2
			c-1.8,3.8-6,5.1-13.3,5.1c-12.4,0-111.4,0-134.7,0c-16.2,0-72.3,0-92.7,0c-15.9,0-25.2-0.9-35.4-6.5c-12.6-7-24.2-18.8-39.7-36.3
			c-11.3-12.7-28.6-33.3-36.3-48.4c-11.7-22.7-17-39.3-16.9-60.7c0.1-26.9,4.7-44.8,24.6-72c15.8-21.5,39.3-40.2,59.2-53.8
			c20.5-14,45-28.6,64.5-41.5c18.5-12.3,32.1-22.1,45.8-33.1c11.7-9.4,25.8-28,16.4-50.9c-4.2-10.3-9.3-14.7-14.5-26.1
			c-4.7-10.3-1.5-16.4,9.9-25.4c9.5-7.4,17.7-9.5,25.1-8.2c3.7,0.6,12.9,2.5,17.1,3.5C1503.2,228.1,1506.1,226.4,1506.7,223z"/>
		<path class="st1" d="M805.5,686.6c-9.6,0-47.9,0-63.8,0c-15.2,0-56.2,0-77.6,0c-23,0-38.3-2.9-48.5-6.4c-8.8-3-16.3-6.7-21.7-9.9
			c-18.4-11-54.9-42.8-75-66.7c-10.9-13.1-24.4-30.7-30-49.9c-12.2-42.5-1.2-71.3,17-98.8c12.4-18.9,39.2-41.2,53.8-52.2
			c41.1-31.1,54-39.9,61.3-73.3c3.6-16.2,0-28.8-5.7-50.1c-1-3.7-1.3-6.8,1.4-9.4s6.7-2.1,14.7-0.2c11.9,2.7,25.8,4.9,49.2,4.5
			c19.2-0.4,46.4-4.8,64.2-10c8.5-2.5,11-0.8,13.9,2.9c2.9,3.6,5.2,10.3,6.7,15.1c8.4,26.5,6.7,53.2-13.2,74.6
			c-9.4,10-21.5,17.1-34.2,25.2c-12.7,8-28.2,19.2-38,31.6c-14.7,18.7-19.9,40-13,62.1c3,9.5,16.8,28.4,34,25.1
			c7.4-1.4,14.3-4.6,23.5-10c17.6-10.3,44.6-30.1,58.9-35.8c10-4,16.9-4.5,24.7-2.7c16.1,3.6,28.9,24.3,31.3,36.3
			c2.4,12,4.4,24.1-5.7,37.8c-10.1,13.7-20.4,19.8-27.5,25.3c-7.8,6-19.4,15-25.1,29c-7.7,18.7-5.9,36.6,6.3,59
			c7,12.8,19.1,24.5,24.1,29.5c3.2,3.2,6.8,6.8,4.5,12.3C814,686.4,809,686.6,805.5,686.6z"/>
		<path class="st1" d="M691.8,36c3.1,0.1,3.9,2.3,4.9,5.6c0.9,2.8,4.4,21.8,8.1,34.9c10,35.7,29.2,46.4,70.5,57.7
			c3.4,0.9,7.1,2.4,7,6.2c-0.1,3-2.9,4.7-6.9,5.9c-7,2.1-17.1,5.9-25.7,10.5c-21.9,12.2-35.9,27.5-44.8,46.1
			c-5.4,11.3-7.7,25.6-10.8,37.5c-0.7,2.6-2.3,5-5.5,5c-3.1,0-4.5-2.6-5.2-5.6c-1.4-6.6-4.3-17.2-6.4-24.5
			c-4.1-13.9-8.3-27.1-22.2-40.8c-15.1-15-40.6-24-50.3-27.9c-3.6-1.5-7.7-2.9-7.9-6.1c-0.2-3.7,2.3-4.8,8.1-6.2
			c49-11.7,59.1-28.3,68.2-50.6c5.8-14,10.3-27.3,14.4-43.1C688,37.9,689,35.9,691.8,36z"/>
	</g>
</g>
</svg>
