<svg width="48" height="30" viewBox="0 0 48 30" fill="none" xmlns="http://www.w3.org/2000/svg">
<path d="M3.46179 0C2.78127 0 2.15668 0.204441 1.62261 0.540876L22.1038 17.8675C23.0415 18.6615 24.3051 18.6615 25.2408 17.8675L45.6859 0.540876C45.1519 0.204441 44.5273 0 43.8467 0H3.46128H3.46179ZM0.198403 2.32566C0.0748569 2.68182 0 3.06172 0 3.4613V26.5387C0 27.2337 0.20886 27.8723 0.558988 28.4136L15.2173 15.0545L0.198403 2.32566ZM47.1104 2.32566L32.1276 15.0368L46.7498 28.4144C47.0999 27.8732 47.3088 27.2345 47.3088 26.5395V3.46212C47.3088 3.0625 47.234 2.6826 47.1104 2.32649V2.32566ZM30.3618 16.5502L26.7197 19.6333C24.9582 21.1276 22.3693 21.1255 20.6079 19.6333L16.9839 16.5683L2.43382 29.8378C2.7594 29.9384 3.10187 30 3.46165 30H43.8471C44.2065 30 44.5493 29.9384 44.8749 29.8378L30.3619 16.5498L30.3618 16.5502Z" fill="#F1EFEF"/>
</svg>
