<svg width="40" height="32" viewBox="0 0 40 32" fill="none" xmlns="http://www.w3.org/2000/svg">
<path d="M39.376 3.7881C37.9272 4.43061 36.3703 4.86486 34.7361 5.06016C36.4041 4.06031 37.685 2.47715 38.2881 0.590806C36.7273 1.51648 34.9984 2.1888 33.1583 2.55118C31.6846 0.981123 29.5851 0 27.2616 0C22.8 0 19.1829 3.61699 19.1829 8.07828C19.1829 8.71143 19.2545 9.32802 19.3922 9.91925C12.6781 9.58237 6.72556 6.36621 2.74115 1.47874C2.04578 2.67188 1.6474 4.05959 1.6474 5.54006C1.6474 8.34272 3.07372 10.8154 5.24135 12.264C3.917 12.2221 2.67144 11.8587 1.58215 11.2537C1.58158 11.2874 1.58158 11.3212 1.58158 11.3552C1.58158 15.2693 4.36623 18.5345 8.06186 19.2765C7.38392 19.4612 6.67025 19.5598 5.9334 19.5598C5.41288 19.5598 4.90677 19.5093 4.41361 19.4149C5.44155 22.6245 8.42496 24.96 11.96 25.0253C9.19522 27.1919 5.71189 28.4834 1.9271 28.4834C1.27509 28.4834 0.631998 28.4452 0 28.3706C3.57508 30.6627 7.82148 32 12.3836 32C27.2427 32 35.3682 19.6903 35.3682 9.01504C35.3682 8.66476 35.3605 8.31636 35.3449 7.96997C36.9232 6.83099 38.2929 5.40813 39.376 3.7881Z" fill="#F1EFEF"/>
</svg>
