<svg width="200" height="131" viewBox="0 0 200 131" fill="none" xmlns="http://www.w3.org/2000/svg">
<path d="M50.065 50.5474H34V88.9673L50.065 50.5474Z" fill="white"/>
<path d="M61.3652 50.5479H77.4094V88.9678L61.3652 50.5479Z" fill="white"/>
<path d="M55.7179 64.708L65.9431 88.9677H59.2344L56.1784 81.2439H48.6953L55.7179 64.708Z" fill="white"/>
<path d="M103.621 74.9793L105.516 80.4111C105.579 80.5472 105.673 80.6099 105.84 80.6099H109.482C109.681 80.6099 109.713 80.5156 109.681 80.3168L102.156 59.4166C102.125 59.2492 102.093 59.2178 101.926 59.2178H97.4048C97.2794 59.2178 97.206 59.3119 97.206 59.448C97.1433 60.5469 97.049 60.8818 96.9128 61.2063L90.2043 80.2855C90.1729 80.5156 90.2463 80.6099 90.4347 80.6099H93.6894C93.8882 80.6099 93.9825 80.5472 94.0557 80.3482L95.8454 74.9793H103.621ZM96.8815 71.4314C97.8653 68.4591 99.1632 64.6495 99.6864 62.4726H99.7178C100.367 64.7542 101.895 69.2754 102.585 71.4314H96.8815Z" fill="white"/>
<path d="M119.354 80.935C121.312 80.935 123.394 80.5792 125.508 79.6685C125.676 79.6058 125.707 79.5327 125.707 79.3757C125.644 78.7894 125.571 77.9417 125.571 77.2929V57.6171C125.571 57.4915 125.571 57.4287 125.414 57.4287H121.866C121.73 57.4287 121.667 57.4915 121.667 57.659V64.3257C121.113 64.2629 120.725 64.2315 120.265 64.2315C114.54 64.2315 111.023 68.0097 111.023 72.7298C111.023 78.2035 114.634 80.935 119.354 80.935ZM121.667 77.2929C121.081 77.4812 120.432 77.5546 119.773 77.5546C117.177 77.5546 115.053 76.0893 115.053 72.5309C115.053 69.3807 117.24 67.5178 120.139 67.5178C120.725 67.5178 121.238 67.5806 121.667 67.748V77.2929Z" fill="white"/>
<path d="M137.029 64.2319C132.142 64.2319 129.117 67.9787 129.117 72.6046C129.117 76.7386 131.524 80.9354 136.956 80.9354C141.551 80.9354 144.774 77.555 144.774 72.4999C144.774 68.0415 142.042 64.2319 137.029 64.2319ZM136.83 67.5182C139.593 67.5182 140.766 69.8939 140.766 72.6046C140.766 75.9537 139.039 77.6177 137.029 77.6177C134.549 77.6177 133.084 75.535 133.084 72.5313C133.084 69.4439 134.643 67.5182 136.83 67.5182Z" fill="white"/>
<path d="M148.439 57.4287C148.303 57.4287 148.209 57.4915 148.209 57.659V79.9303C148.209 80.0246 148.303 80.192 148.439 80.2234C149.999 80.7048 151.631 80.935 153.316 80.935C158.141 80.935 162.83 77.9417 162.83 71.9134C162.83 67.5492 159.837 64.2315 155.148 64.2315C154.07 64.2315 153.065 64.3989 152.186 64.692L152.144 57.6904C152.144 57.4601 152.082 57.4287 151.851 57.4287H148.439ZM158.822 72.3111C158.822 75.9218 156.352 77.6173 153.683 77.6173C153.128 77.6173 152.636 77.5859 152.186 77.4498V67.9469C152.699 67.748 153.316 67.5806 154.457 67.5806C157.032 67.5806 158.822 69.2132 158.822 72.3111Z" fill="white"/>
<path d="M176.069 73.4837C177.66 73.4837 178.968 73.4523 179.419 73.3477C179.586 73.3163 179.649 73.2535 179.68 73.1174C179.774 72.7616 179.816 72.0185 179.816 71.108C179.816 68.0101 177.953 64.2319 173.139 64.2319C168.22 64.2319 165.488 68.2403 165.488 72.7616C165.488 76.77 167.602 80.9354 173.526 80.9354C175.745 80.9354 177.179 80.5796 178.414 79.9934C178.539 79.9307 178.602 79.8259 178.602 79.6376V76.927C178.602 76.77 178.508 76.7386 178.414 76.8014C177.179 77.3247 175.839 77.5863 174.374 77.5863C171.056 77.5863 169.549 75.7548 169.455 73.4837H176.069ZM169.455 70.6789C169.717 69.0881 170.721 67.3612 172.971 67.3612C175.452 67.3612 176.101 69.4439 176.101 70.3859C176.101 70.4172 176.101 70.5533 176.101 70.6475C175.965 70.6789 175.546 70.6789 174.311 70.6789H169.455Z" fill="white"/>
</svg>
