<svg width="200" height="131" viewBox="0 0 200 131" fill="none" xmlns="http://www.w3.org/2000/svg">
<path fill-rule="evenodd" clip-rule="evenodd" d="M152.081 57.0546C151.414 57.0543 150.775 57.319 150.303 57.7906C149.832 58.262 149.567 58.9017 149.566 59.5689C149.566 60.236 149.831 60.8759 150.302 61.3479C150.773 61.8199 151.412 62.0852 152.078 62.0855C152.745 62.0855 153.385 61.8204 153.857 61.3484C154.328 60.8764 154.593 60.2363 154.593 59.5689C154.593 58.9014 154.328 58.2613 153.857 57.7894C153.385 57.3174 152.745 57.0522 152.078 57.0522L152.081 57.0546ZM153.813 64.0221H150.31C150.242 64.0228 150.177 64.0502 150.129 64.0986C150.081 64.1469 150.054 64.2122 150.054 64.2802V79.5849C150.054 79.7296 150.168 79.8431 150.31 79.8431H153.816C153.884 79.8431 153.95 79.8159 153.998 79.7673C154.047 79.7191 154.074 79.6536 154.074 79.5849V64.2802C154.074 64.2118 154.047 64.1461 153.998 64.0977C153.95 64.0493 153.884 64.0221 153.816 64.0221H153.813ZM161.607 64.0366V63.5542C161.607 62.1265 162.154 61.4898 163.38 61.4898C164.111 61.4898 164.696 61.6345 165.356 61.8564C165.395 61.8695 165.436 61.8731 165.477 61.867C165.517 61.8608 165.556 61.845 165.589 61.8209C165.622 61.7968 165.648 61.7651 165.667 61.7284C165.685 61.6918 165.694 61.6513 165.694 61.6104V58.656C165.693 58.6008 165.676 58.5471 165.643 58.5029C165.61 58.4586 165.563 58.426 165.511 58.41C164.566 58.1212 163.582 57.9797 162.595 57.9904C159.359 57.9904 157.647 59.8161 157.647 63.2673V64.0101H155.963C155.895 64.0101 155.83 64.0369 155.781 64.0848C155.733 64.1327 155.706 64.1977 155.705 64.2657V67.2972C155.705 67.4395 155.821 67.5553 155.963 67.5553H157.647V79.5899C157.647 79.7296 157.761 79.8456 157.903 79.8456H161.409C161.477 79.8449 161.542 79.8174 161.59 79.7692C161.638 79.7206 161.664 79.6554 161.664 79.5874V67.5529H164.937L169.952 79.5874C169.383 80.8489 168.824 81.1021 168.06 81.1021C167.441 81.1021 166.79 80.9163 166.125 80.5521C166.094 80.5357 166.061 80.5255 166.026 80.5221C165.991 80.5187 165.956 80.5224 165.922 80.5329C165.889 80.5443 165.858 80.5626 165.832 80.5867C165.806 80.6108 165.785 80.6402 165.771 80.6727L164.583 83.2798C164.555 83.3386 164.551 83.406 164.571 83.4678C164.591 83.5296 164.634 83.5813 164.691 83.6125C165.932 84.2856 167.053 84.5726 168.436 84.5726C171.024 84.5726 172.455 83.3667 173.716 80.118L179.798 64.3887C179.814 64.3497 179.82 64.3074 179.816 64.2656C179.811 64.2237 179.796 64.1836 179.773 64.1488C179.749 64.1139 179.717 64.0854 179.68 64.0659C179.643 64.0463 179.602 64.0363 179.56 64.0366H175.911C175.858 64.0371 175.806 64.0541 175.763 64.0852C175.72 64.1163 175.687 64.16 175.67 64.2102L171.93 74.8966L167.834 64.203C167.815 64.1543 167.783 64.1123 167.74 64.0825C167.698 64.0528 167.647 64.0367 167.595 64.0366H161.607ZM148.167 64.0221H144.312V60.0741C144.312 60.0404 144.305 60.0069 144.292 59.9757C144.279 59.9446 144.26 59.9163 144.236 59.8925C144.212 59.8687 144.184 59.85 144.153 59.8372C144.121 59.8245 144.088 59.8182 144.054 59.8185H140.548C140.48 59.8191 140.416 59.8462 140.368 59.894C140.32 59.9418 140.293 60.0065 140.292 60.0741V64.0221H138.606C138.572 64.0221 138.538 64.0288 138.507 64.0418C138.476 64.0548 138.448 64.0739 138.424 64.0978C138.4 64.1218 138.381 64.1503 138.369 64.1816C138.356 64.2129 138.35 64.2464 138.35 64.2802V67.2948C138.35 67.4371 138.466 67.5529 138.606 67.5529H140.292V75.3524C140.292 78.5071 141.859 80.1034 144.953 80.1034C146.211 80.1034 147.252 79.8456 148.235 79.2884C148.275 79.2661 148.308 79.2334 148.33 79.1941C148.353 79.1545 148.365 79.1097 148.365 79.0642V76.1941C148.366 76.1501 148.355 76.1067 148.334 76.068C148.313 76.0294 148.282 75.9968 148.245 75.9736C148.207 75.9503 148.165 75.937 148.121 75.9351C148.077 75.9332 148.033 75.9426 147.994 75.9626C147.319 76.3026 146.666 76.4594 145.936 76.4594C144.811 76.4594 144.309 75.9505 144.309 74.805V67.5529H148.165C148.199 67.5532 148.233 67.5468 148.264 67.5339C148.295 67.521 148.324 67.5021 148.348 67.478C148.372 67.454 148.391 67.4254 148.404 67.394C148.417 67.3625 148.423 67.3288 148.423 67.2948V64.2802C148.423 64.2464 148.417 64.2129 148.404 64.1816C148.391 64.1503 148.373 64.1218 148.349 64.0978C148.325 64.0739 148.297 64.0548 148.266 64.0418C148.235 64.0288 148.201 64.0221 148.167 64.0221ZM129.682 63.7014C124.959 63.7014 121.255 67.3431 121.255 71.9905C121.255 76.5896 124.933 80.1903 129.624 80.1903C134.364 80.1903 138.078 76.5631 138.078 71.9326C138.078 67.3165 134.391 63.7014 129.682 63.7014ZM129.682 76.633C127.169 76.633 125.272 74.612 125.272 71.9302C125.272 69.2411 127.104 67.29 129.624 67.29C132.155 67.29 134.058 69.311 134.058 71.9929C134.058 74.682 132.22 76.633 129.682 76.633ZM112.78 63.7014C110.804 63.7014 109.185 64.4804 107.85 66.0745V64.2802C107.85 64.2122 107.823 64.1469 107.775 64.0986C107.727 64.0502 107.662 64.0228 107.594 64.0221H104.088C104.02 64.0228 103.955 64.0502 103.907 64.0986C103.859 64.1469 103.832 64.2122 103.832 64.2802V84.2253C103.832 84.3651 103.948 84.4807 104.088 84.4807H107.594C107.662 84.4801 107.726 84.4532 107.774 84.4053C107.822 84.3573 107.849 84.2927 107.85 84.2253V77.9307C109.187 79.4281 110.806 80.1613 112.78 80.1613C116.448 80.1613 120.161 77.3349 120.161 71.9326C120.161 66.5303 116.45 63.7014 112.78 63.7014ZM116.086 71.9326C116.086 74.682 114.392 76.6041 111.968 76.6041C109.57 76.6041 107.763 74.5951 107.763 71.9326C107.763 69.27 109.57 67.2611 111.968 67.2611C114.353 67.2611 116.089 69.2242 116.089 71.9326H116.086ZM95.7575 67.5674C91.844 66.6316 91.1477 65.9756 91.1477 64.5985C91.1477 63.2962 92.3718 62.4207 94.1936 62.4207C95.9576 62.4207 97.7095 63.084 99.5433 64.4538C99.5705 64.474 99.6014 64.4886 99.6345 64.4968C99.6676 64.5049 99.7019 64.5065 99.7353 64.5013C99.769 64.4961 99.8012 64.4844 99.8303 64.4667C99.8593 64.4491 99.8847 64.4258 99.9048 64.3984L101.818 61.6996C101.855 61.6463 101.871 61.5809 101.862 61.5165C101.853 61.4521 101.82 61.3935 101.77 61.3523C99.5866 59.5966 97.1263 58.7453 94.2514 58.7453C90.0222 58.7453 87.0704 61.2824 87.0704 64.9169C87.0704 68.8118 89.6175 70.1913 94.0201 71.2549C97.7648 72.1183 98.3987 72.8418 98.3987 74.1369C98.3987 75.5695 97.1214 76.4594 95.0609 76.4594C92.7766 76.4594 90.914 75.6877 88.8269 73.8837C88.7746 73.8392 88.7075 73.8168 88.6389 73.821C88.6049 73.8236 88.5718 73.8331 88.5418 73.8488C88.5115 73.8646 88.4846 73.8863 88.463 73.9126L86.3184 76.4642C86.2748 76.5151 86.2528 76.5813 86.2578 76.6482C86.2627 76.7151 86.2943 76.7773 86.345 76.8212C88.7079 78.9637 91.7859 80.1449 94.9743 80.1325C99.5288 80.1325 102.474 77.6413 102.474 73.7872C102.474 70.529 100.529 68.7274 95.7575 67.5649V67.5674ZM56.6759 46.7542C50.6619 46.7542 44.8942 49.1452 40.6416 53.4012C36.3891 57.6572 34 63.4296 34 69.4485C34 75.4674 36.3891 81.2397 40.6416 85.4958C44.8942 89.7519 50.6619 92.1429 56.6759 92.1429C62.6899 92.1429 68.4577 89.7519 72.7101 85.4958C76.9627 81.2397 79.3519 75.4674 79.3519 69.4485C79.3519 63.4296 76.9627 57.6572 72.7101 53.4012C68.4577 49.1452 62.6899 46.7542 56.6759 46.7542ZM67.0765 79.4863C66.9797 79.6452 66.853 79.7834 66.7027 79.8932C66.5527 80.0026 66.3824 80.0818 66.2018 80.1254C66.0209 80.169 65.8335 80.1767 65.6499 80.1476C65.4662 80.1186 65.2903 80.0537 65.1317 79.9566C59.8062 76.7006 53.107 75.965 45.2126 77.769C45.0318 77.8104 44.8446 77.8157 44.6617 77.7845C44.4788 77.7535 44.3038 77.6864 44.1467 77.5878C43.9896 77.4892 43.8535 77.3602 43.7462 77.209C43.6388 77.0575 43.5623 76.8864 43.521 76.7054C43.4797 76.5244 43.4744 76.337 43.5055 76.154C43.5365 75.9709 43.6033 75.7958 43.702 75.6386C43.8007 75.4814 43.9293 75.3452 44.0806 75.2377C44.2319 75.1303 44.4028 75.0537 44.5837 75.0124C53.2203 73.0348 60.6303 73.8861 66.6065 77.5424C67.2716 77.9499 67.4812 78.8206 67.0765 79.4863ZM69.8475 73.3073C69.6023 73.7065 69.209 73.9922 68.7536 74.1016C68.2985 74.211 67.8183 74.1353 67.4185 73.8909C61.3243 70.1407 52.0323 69.0554 44.8223 71.2452C44.3836 71.3494 43.9217 71.2822 43.5308 71.0573C43.14 70.8325 42.8495 70.4669 42.7186 70.0352C42.5876 69.6034 42.6262 69.1379 42.8263 68.7336C43.0265 68.3293 43.3731 68.0166 43.7957 67.8592C52.0323 65.3582 62.2689 66.5713 69.2669 70.8738C69.465 70.9954 69.6373 71.1548 69.7739 71.343C69.9106 71.5313 70.0089 71.7446 70.063 71.9708C70.1171 72.197 70.1261 72.4317 70.0896 72.6615C70.0531 72.8912 69.9718 73.1115 69.85 73.3097L69.8475 73.3073ZM70.0912 66.8728C62.7798 62.5293 50.7213 62.1289 43.7451 64.2512C43.4774 64.3367 43.1954 64.3681 42.9154 64.3435C42.6355 64.319 42.3632 64.239 42.1144 64.1082C41.8657 63.9774 41.6453 63.7984 41.4663 63.5816C41.2872 63.3649 41.153 63.1147 41.0714 62.8456C40.9898 62.5764 40.9624 62.2938 40.991 62.014C41.0195 61.7342 41.1033 61.4629 41.2375 61.2158C41.3717 60.9687 41.5536 60.7507 41.7727 60.5746C41.9918 60.3985 42.2437 60.2677 42.5137 60.1899C50.5214 57.754 63.8377 58.2267 72.2503 63.2238C72.7339 63.511 73.0839 63.9788 73.2233 64.5243C73.3625 65.0697 73.2793 65.6482 72.9924 66.1324C72.7054 66.6166 72.2379 66.9669 71.6931 67.1062C71.148 67.2455 70.5701 67.1624 70.0862 66.8752" fill="white"/>
</svg>
