<svg width="200" height="131" viewBox="0 0 200 131" fill="none" xmlns="http://www.w3.org/2000/svg">
<path d="M51.9589 45.7539H53.2556C57.7573 45.8518 62.1857 47.6623 65.3663 50.8673C64.1919 52.0662 62.9931 53.2161 61.8432 54.4149C60.0572 52.8002 57.9041 51.5524 55.5554 51.112C52.0812 50.378 48.3379 51.0386 45.4264 53.0204C42.2458 55.1 40.0928 58.6231 39.6279 62.3909C39.1141 66.1097 40.1662 70.0243 42.5883 72.9113C44.9126 75.7249 48.4602 77.4865 52.1301 77.6088C55.5554 77.8046 59.1275 76.7525 61.623 74.3548C63.5803 72.6667 64.4855 70.0977 64.7791 67.6022C60.7178 67.6022 56.6564 67.6266 52.595 67.6022V62.5622H69.6968C70.5776 67.9692 69.3054 74.0612 65.1951 77.9269C62.4549 80.6671 58.6626 82.2819 54.7969 82.5999C51.0536 82.9669 47.188 82.2574 43.8606 80.4469C39.8726 78.3184 36.692 74.7218 35.1262 70.4892C33.6582 66.5991 33.6337 62.1952 35.0038 58.2806C36.2516 54.7085 38.6493 51.5524 41.732 49.3504C44.6924 47.1729 48.2889 45.9741 51.9589 45.7539Z" fill="white"/>
<path d="M150.066 47.0254H155.302V81.9631C153.565 81.9631 151.804 81.9875 150.066 81.9386C150.091 70.3172 150.066 58.6713 150.066 47.0254Z" fill="white"/>
<path d="M81.3409 59.137C84.5704 58.5253 88.0691 59.2104 90.7359 61.1432C93.158 62.8558 94.8462 65.5471 95.36 68.483C96.0206 71.8838 95.1887 75.6027 92.9868 78.294C90.6136 81.3033 86.7235 82.9181 82.9312 82.6734C79.457 82.4777 76.0807 80.7406 74.0255 77.9025C71.7012 74.7708 71.1385 70.4648 72.4107 66.7949C73.683 62.8558 77.2795 59.8465 81.3409 59.137ZM82.0749 63.7855C80.7537 64.128 79.5304 64.8865 78.6496 65.963C76.2764 68.8011 76.4232 73.4252 79.0411 76.0675C80.5335 77.5844 82.7844 78.294 84.864 77.878C86.7968 77.5355 88.485 76.2388 89.4147 74.5262C91.0295 71.6147 90.5646 67.6022 88.0936 65.3269C86.5033 63.8589 84.179 63.2473 82.0749 63.7855Z" fill="white"/>
<path d="M107.277 59.1358C110.971 58.4263 115.008 59.4539 117.773 62.0473C122.274 66.0842 122.764 73.6443 118.922 78.2928C116.598 81.2288 112.83 82.8435 109.112 82.6723C105.564 82.5744 102.065 80.8128 99.9612 77.9014C97.588 74.6963 97.0742 70.2924 98.4198 66.5491C99.7655 62.7324 103.289 59.8209 107.277 59.1358ZM108.011 63.7844C106.689 64.1269 105.466 64.8854 104.585 65.9374C102.237 68.7266 102.334 73.2773 104.854 75.9441C106.347 77.5344 108.671 78.3173 110.824 77.8769C112.733 77.5099 114.445 76.2377 115.375 74.525C116.965 71.5891 116.5 67.5766 114.005 65.3013C112.414 63.8333 110.09 63.2461 108.011 63.7844Z" fill="white"/>
<path d="M129.27 60.5556C132.083 58.7941 135.827 58.3047 138.86 59.8216C139.815 60.2376 140.598 60.9471 141.356 61.6566C141.38 60.996 141.356 60.311 141.38 59.6259C143.02 59.6504 144.659 59.6259 146.323 59.6504V81.2295C146.298 84.4835 145.466 87.9333 143.118 90.3065C140.549 92.9244 136.61 93.7317 133.062 93.1935C129.27 92.6308 125.967 89.8661 124.499 86.3674C125.967 85.6579 127.508 85.0952 129.025 84.4346C129.881 86.4408 131.618 88.1534 133.796 88.5449C135.973 88.9364 138.493 88.3981 139.913 86.5876C141.429 84.7282 141.429 82.1837 141.356 79.9084C140.231 81.0093 138.934 81.988 137.368 82.355C133.967 83.3092 130.224 82.1348 127.606 79.835C124.964 77.5351 123.398 73.9875 123.545 70.4644C123.618 66.4764 125.869 62.6352 129.27 60.5556ZM134.334 63.6873C132.842 63.932 131.447 64.7638 130.493 65.9137C128.193 68.6539 128.193 73.0334 130.517 75.7246C131.839 77.3149 133.967 78.1957 136.022 77.9755C137.955 77.7798 139.741 76.5565 140.695 74.8683C142.31 72.0058 142.041 68.1157 139.864 65.6201C138.518 64.0787 136.365 63.3203 134.334 63.6873Z" fill="white"/>
<path d="M161.588 61.8035C164.524 59.0633 169.051 58.1336 172.818 59.5771C176.391 60.9228 178.666 64.3235 179.816 67.8222C174.507 70.0242 169.222 72.2016 163.913 74.4036C164.647 75.7982 165.772 77.0704 167.289 77.5842C169.418 78.3427 171.962 78.0735 173.748 76.6545C174.458 76.1162 175.02 75.4067 175.559 74.7217C176.904 75.6269 178.25 76.5077 179.596 77.4129C177.687 80.2755 174.482 82.2817 171.032 82.5998C167.216 83.0646 163.154 81.5967 160.683 78.6118C156.622 73.9143 157.013 66.0362 161.588 61.8035ZM164.206 66.3298C163.375 67.5286 163.032 68.9966 163.056 70.4401C166.604 68.9721 170.152 67.5041 173.699 66.0117C173.112 64.6416 171.693 63.8098 170.25 63.5896C167.925 63.1736 165.503 64.4214 164.206 66.3298Z" fill="white"/>
</svg>
