<svg width="200" height="131" viewBox="0 0 200 131" fill="none" xmlns="http://www.w3.org/2000/svg">
<path d="M34 62.8251L130.664 27.5479H130.675V45.7717L34 62.8362V62.8251Z" fill="white"/>
<path d="M34.5439 108.251V73.3335H54.3754L58.9906 81.349H44.9782V87.1125H57.6682V94.4687H44.9782V100.232H62.502V108.248H34.5439V108.251ZM80.2999 108.251V94.4724L92.5492 73.3335H81.0666L75.1328 84.753L69.2545 73.3335H57.6682L69.8619 94.4724V108.251H80.2999Z" fill="white"/>
<path d="M95.7143 92.2343H97.7478L98.0219 92.1787L98.2404 92.1231L98.459 92.012L98.5701 91.9009L98.6812 91.7898L98.7368 91.6268L98.7923 91.2971L98.7368 91.0823L98.6812 90.9193L98.6257 90.7564L98.5145 90.6452L98.3516 90.5341L98.133 90.4786L97.6404 90.423H95.7143V92.2343ZM95.7143 96.0235H97.7478H98.0219L98.296 95.9679L98.5145 95.8568L98.6775 95.6938L98.8405 95.5309L98.9516 95.3123L99.0072 95.0938L99.0627 94.8197L99.0072 94.5456L98.9516 94.2715L98.8405 94.0529L98.7294 93.89L98.5108 93.7788L98.2923 93.6677L98.0738 93.6122H97.7441H95.7143V96.0235ZM94.1771 97.4495V88.9414H97.8034L98.3516 88.9969L98.8998 89.1081L99.3405 89.271L99.7258 89.5451L100.055 89.8748L100.274 90.26L100.385 90.7008L100.441 91.1934L100.385 91.412L100.33 91.6861L100.274 91.9046L100.163 92.1787L99.9998 92.3417L99.8369 92.5602L99.6739 92.7232L99.4554 92.8343L99.8406 93.0529L100.059 93.2158L100.278 93.4344L100.441 93.6529L100.604 93.9826L100.659 94.3122L100.715 94.753L100.659 95.3568L100.496 95.905L100.278 96.3457L99.948 96.731L99.5072 97.0606L99.0146 97.2792L98.4108 97.3903L97.7515 97.4458L94.1771 97.4495ZM103.789 97.5607L103.459 97.5051L103.185 97.4495L102.911 97.2866L102.693 97.1755L102.53 96.9569L102.2 96.5717L101.982 96.1309L101.87 95.6383L101.815 95.1975V94.7567V91.2416H103.352V94.6456V95.0308L103.408 95.3605L103.519 95.579L103.63 95.7976L103.796 95.9605L103.959 96.0716L104.234 96.1828H104.508H104.726L105 96.0716L105.163 95.9605L105.33 95.7976L105.493 95.579L105.548 95.3605L105.604 95.0308L105.66 94.7012V91.2416H107.141V97.4458H105.66V96.9532L105.33 97.2273L105 97.4458L104.56 97.557L104.119 97.6125L103.789 97.5607ZM127.521 97.4495V94.0455V93.6603L127.465 93.3862L127.354 93.1121L127.243 92.8936L127.08 92.7306L126.913 92.6195L126.639 92.5639L126.421 92.5084L126.147 92.5639L125.873 92.6195L125.71 92.7306L125.547 92.8936L125.38 93.1121L125.269 93.3862L125.213 93.6603V94.0455V97.4495H123.676V91.2453H125.213V91.7935L125.543 91.4638L125.928 91.3009L126.313 91.1379H126.754H127.302L127.743 91.3009L128.128 91.5194L128.458 91.849L128.732 92.2343L128.895 92.7269L129.006 93.2751L129.062 93.9344V97.4495H127.521ZM108.567 91.2453H110.104V97.4495H108.567V91.2453ZM111.423 97.4495V89.434L112.96 88.6636V97.4495H111.423ZM116.587 92.5639L116.368 92.6195L116.149 92.675L115.986 92.838L115.823 93.0566L115.712 93.3862L115.657 93.7714L115.601 94.2641L115.657 94.8123L115.712 95.2531L115.823 95.5827L115.986 95.8013L116.205 95.9642L116.368 96.0754L116.587 96.1865H116.805L117.135 96.1309L117.464 95.9679L117.683 95.805L117.846 95.5864V93.1158L117.683 92.9528L117.464 92.7343L117.135 92.5713L116.75 92.5158L116.587 92.5639ZM115.927 97.5607L115.435 97.3977L115.049 97.1236L114.664 96.7347L114.39 96.242L114.227 95.6938L114.116 95.0345L114.06 94.3196L114.116 93.6048L114.227 92.9454L114.446 92.4528L114.72 91.9602L115.049 91.6305L115.49 91.3564L115.931 91.1934L116.479 91.1379H116.864L117.25 91.249L117.579 91.412L117.853 91.6861V89.434L119.39 88.6673V97.4533H117.853V97.0125L117.524 97.231L117.194 97.4495L116.864 97.5607L116.479 97.6162L115.927 97.5607ZM150.756 92.5639L150.427 92.675L150.208 92.8936L149.99 93.1677V95.5827L150.153 95.7457L150.371 95.9642L150.701 96.1272L150.864 96.1828H151.082L151.356 96.1272L151.575 96.0716L151.793 95.9087L151.956 95.6901L152.067 95.416L152.123 95.0864L152.179 94.7012L152.234 94.2604L152.179 93.8196L152.123 93.4344L152.012 93.1603L151.849 92.8862L151.686 92.7232L151.467 92.6121L151.249 92.5565L151.086 92.501L150.756 92.5639ZM150.975 97.5607L150.59 97.4495L150.26 97.231L149.986 97.0125V97.4533H148.449V89.6007L149.986 88.8303V91.6861L150.26 91.4675L150.645 91.249L150.975 91.1379H151.36L151.908 91.1934L152.349 91.3564L152.79 91.6305L153.119 91.9602L153.394 92.4528L153.612 92.9454L153.723 93.6048L153.779 94.3196L153.723 95.0345L153.612 95.6938L153.449 96.242L153.175 96.7347L152.79 97.1199L152.405 97.394L151.912 97.557L151.364 97.6125L150.975 97.5607ZM132.41 92.5639L132.192 92.675L132.029 92.838L131.862 93.0566L131.751 93.3862L131.695 93.7714L131.64 94.2641L131.695 94.8123L131.751 95.1975L131.862 95.5827L132.029 95.8013L132.192 95.9642L132.41 96.0754L132.629 96.1865H132.792L133.177 96.1309L133.451 95.9679L133.725 95.805L133.888 95.5864V93.1158L133.725 92.8973L133.507 92.7343L133.177 92.5713L132.792 92.5158H132.573L132.41 92.5639ZM131.858 98.7682H131.914L132.573 98.7126L133.066 98.6015L133.395 98.4385L133.67 98.22L133.781 97.9459L133.892 97.6718V97.1236V97.0125L133.562 97.231L133.232 97.4495L132.903 97.5607L132.462 97.6162L131.969 97.5607L131.477 97.3421L131.092 97.068L130.706 96.7384L130.432 96.2457L130.269 95.6975L130.106 95.0382V94.2678V93.6085L130.269 92.9491L130.432 92.401L130.762 91.9602L131.092 91.5749L131.532 91.3564L131.973 91.1934L132.521 91.1379H132.907L133.292 91.249L133.621 91.4675L133.895 91.6861V91.2453H135.433V96.9013L135.377 97.6162L135.266 98.22L134.992 98.7682L134.881 98.9867L134.662 99.2053L134.499 99.3682L134.281 99.5312L133.733 99.7498L133.129 99.9127L132.414 99.9683L131.858 98.7682ZM141.252 94.5937L141.089 94.6493L140.926 94.7604L140.815 94.8715L140.704 95.0345L140.648 95.1975V95.416V95.579L140.704 95.7976L140.815 95.9605L140.926 96.0716L141.089 96.1828L141.252 96.2383L141.47 96.2939L141.689 96.3495L142.074 96.2939L142.459 96.1309L142.678 95.9124L142.896 95.6938V94.816L142.622 94.7049L142.348 94.5937L142.018 94.5382H141.689H141.47L141.252 94.5937ZM140.978 97.5607L140.592 97.5051L140.207 97.3421L139.878 97.1236L139.548 96.7939L139.329 96.4087L139.166 95.9679L139.111 95.4197L139.166 94.8715L139.329 94.4308L139.603 94.1011L139.933 93.827L140.318 93.6085L140.704 93.4973L141.144 93.3862H141.585H141.915L142.3 93.4418L142.63 93.5529L142.904 93.664V93.2232V93.0603L142.848 92.8417L142.737 92.6788L142.626 92.5676L142.463 92.4565L142.244 92.401L141.804 92.3454L141.363 92.401L140.922 92.4565L140.537 92.6195L140.207 92.7825L139.603 91.7379L140.152 91.4638L140.7 91.2453L141.304 91.1342H141.907H142.456L142.948 91.2453L143.389 91.4638L143.774 91.6824L144.048 92.012L144.267 92.3417L144.378 92.7825L144.433 93.2751V97.4495H142.896V96.9569L142.567 97.231L142.126 97.4495L141.741 97.5607L141.411 97.6162L140.978 97.5607ZM157.072 92.4528L156.853 92.5084L156.635 92.6195L156.472 92.7825L156.36 92.9454L156.249 93.164L156.138 93.4381V93.7122H158.446L158.39 93.2195L158.279 93.001L158.168 92.838L158.005 92.675L157.787 92.5121L157.568 92.4565L157.294 92.401L157.072 92.4528ZM156.853 97.5607L156.249 97.3421L155.757 97.068L155.371 96.7384L154.986 96.2457L154.768 95.6975L154.605 95.0938L154.549 94.3789L154.605 93.664L154.768 93.0603L154.986 92.5121L155.316 92.0194L155.757 91.6342L156.197 91.3601L156.746 91.1971L157.349 91.1416L157.898 91.1971L158.39 91.3601L158.831 91.6342L159.216 92.0194L159.546 92.4602L159.764 93.0084L159.876 93.6677L159.931 94.3826V94.8234H156.086L156.197 95.2642L156.309 95.5938L156.527 95.8124L156.69 95.9753L156.964 96.0865L157.127 96.142L157.512 96.1976L157.898 96.142L158.227 96.0309L158.501 95.8679L158.72 95.6494L159.709 96.6384L159.435 96.8569L159.216 97.0754L158.942 97.2384L158.668 97.3495L158.12 97.5681L157.516 97.6236L156.853 97.5607ZM171.851 92.4528L171.632 92.5084L171.469 92.6195L171.306 92.7825L171.143 92.9454L171.032 93.164L170.977 93.4381V93.7122H173.284L173.173 93.2195L173.118 93.001L173.006 92.838L172.843 92.675L172.625 92.5121L172.406 92.4565L172.132 92.401L171.851 92.4528ZM171.684 97.5607L171.08 97.3421L170.588 97.068L170.147 96.7384L169.817 96.2457L169.543 95.6975L169.432 95.0938L169.376 94.3789L169.432 93.664L169.543 93.0603L169.817 92.5121L170.147 92.0194L170.532 91.6342L171.025 91.3601L171.573 91.1971L172.121 91.1416L172.725 91.1971L173.218 91.3601L173.658 91.6342L174.044 92.0194L174.318 92.4602L174.536 93.0084L174.699 93.6677L174.755 94.3826V94.8234H170.91L170.965 95.2642L171.128 95.5938L171.291 95.8124L171.51 95.9753L171.729 96.0865L171.947 96.142L172.277 96.1976L172.662 96.142L172.992 96.0309L173.266 95.8679L173.54 95.6494L174.473 96.6384L174.255 96.8569L173.981 97.0754L173.762 97.2384L173.488 97.3495L172.884 97.5681L172.28 97.6236L171.684 97.5607ZM166.961 97.557L166.576 97.394L166.302 97.231L166.084 96.9569L165.921 96.6828L165.809 96.3532L165.754 96.0235L165.698 95.6938V92.675H164.765V91.249H165.698V89.6563L167.236 88.8858V91.2453H168.665V92.6713H167.236V95.3049L167.291 95.6901L167.402 95.9087L167.513 96.0198L167.624 96.0754L167.899 96.1309H168.173L168.391 96.0754L168.832 95.8568L168.669 97.2829L168.395 97.4458L168.065 97.5014L167.736 97.557L167.35 97.6125L166.961 97.557ZM162.565 97.557L162.18 97.394L161.905 97.231L161.687 96.9569L161.52 96.6828L161.409 96.3532L161.354 96.0235L161.298 95.6938V92.675H160.365V91.249H161.298V89.6563L162.835 88.8858V91.2453H164.154V92.6713H162.835V95.3049L162.891 95.6901L163.002 95.9087L163.113 96.0198L163.224 96.0754L163.498 96.1309H163.772L163.991 96.0754L164.432 95.8568L164.269 97.2829L163.994 97.4458L163.665 97.5014L163.335 97.557L162.95 97.6125L162.565 97.557ZM175.751 97.4495V91.2453H177.288V91.7935L177.562 91.4638L177.892 91.3009L178.277 91.1379H178.662H178.937L179.266 91.1934L179.54 91.3564L179.814 91.4675L179.374 93.0047L179.155 92.8417L178.937 92.7306L178.662 92.675H178.388H178.114L177.896 92.7306L177.733 92.8417L177.57 93.0047L177.459 93.2232L177.348 93.4418L177.292 93.7714V94.1011V97.4495H175.751ZM108.567 88.8303H110.104V90.3674H108.567V88.8303ZM120.765 91.2453H122.302V97.4495H120.765V91.2453ZM120.765 88.8303H122.302V90.3674H120.765V88.8303ZM162.95 103.432L162.787 103.543L162.624 103.706L162.461 103.924L162.35 104.198L162.239 104.639V105.08V105.628L162.35 106.069L162.461 106.399L162.624 106.673L162.787 106.836L163.006 106.947L163.172 107.002H163.391H163.776L164.05 106.839L164.269 106.621L164.487 106.402V103.987L164.324 103.769L164.05 103.606L163.776 103.443L163.391 103.387H163.172L162.95 103.432ZM163.061 108.428L162.513 108.373L162.072 108.21L161.631 107.936L161.302 107.55L161.028 107.11L160.809 106.506L160.698 105.902L160.642 105.132L160.698 104.417L160.809 103.813L161.028 103.265L161.302 102.824L161.631 102.439L162.072 102.165L162.565 102.002L163.113 101.946L163.443 102.002L163.828 102.113L164.157 102.276L164.487 102.55V100.298L166.024 99.5312V108.317H164.487V107.825L164.157 108.099L163.772 108.317L163.443 108.428H163.061ZM108.678 108.317V102.113H110.216V102.661L110.49 102.331L110.819 102.113L111.149 102.002L111.59 101.946L111.864 102.002L112.194 102.057L112.468 102.168L112.742 102.331L112.301 103.813L112.082 103.702L111.808 103.591L111.59 103.535L111.316 103.48L111.042 103.535L110.823 103.591L110.605 103.702L110.493 103.865L110.33 104.028L110.275 104.302L110.219 104.576V104.961V108.31H108.678V108.317ZM98.6812 108.317L98.0219 105.735L97.6367 104.361L97.307 105.787L96.6477 108.313H95.3291L95.2735 108.258L93.6289 102.324V102.106H95.1068L95.7106 104.413L95.9847 105.95L96.2032 105.128L96.3699 104.358L97.0292 102.106H98.3478L98.9516 104.358L99.3368 105.95L99.6665 104.358L100.215 102.106H101.752L99.9924 108.31H98.6812V108.317ZM104.393 103.543L104.174 103.706L103.956 103.869L103.845 104.143L103.734 104.472L103.678 104.802L103.622 105.187L103.678 105.573L103.734 105.958L103.845 106.232L103.956 106.506L104.174 106.724L104.393 106.887L104.611 106.943L104.885 106.999L105.16 106.943L105.378 106.887L105.597 106.724L105.815 106.506L105.926 106.232L106.037 105.958L106.149 105.573V105.187V104.802L106.037 104.472L105.926 104.143L105.815 103.869L105.597 103.706L105.378 103.543L105.16 103.432H104.885H104.611L104.393 103.543ZM104.282 108.373L103.734 108.21L103.293 107.936L102.852 107.55L102.522 107.058L102.248 106.51L102.137 105.906L102.082 105.191L102.137 104.532L102.248 103.928L102.522 103.324L102.852 102.883L103.293 102.498L103.734 102.224L104.282 102.006L104.885 101.95L105.489 102.006L106.037 102.224L106.478 102.498L106.919 102.883L107.249 103.324L107.523 103.928L107.634 104.532L107.689 105.191L107.634 105.906L107.523 106.51L107.249 107.058L106.919 107.55L106.478 107.936L106.037 108.21L105.489 108.373L104.885 108.428L104.282 108.373ZM153.227 108.317V102.113H154.764V102.661L155.094 102.331L155.423 102.113L155.753 102.002L156.138 101.946L156.468 102.002L156.798 102.057L157.072 102.168L157.29 102.331L156.905 103.813L156.686 103.702L156.412 103.591L156.138 103.535L155.864 103.48L155.646 103.535L155.427 103.591L155.209 103.702L155.046 103.865L154.934 104.028L154.879 104.302L154.823 104.576L154.768 104.961V108.31H153.227V108.317ZM143.285 108.317L142.57 105.735L142.241 104.361L141.911 105.787L141.196 108.313H139.878V108.258L138.118 102.109H139.711L140.259 104.417L140.589 105.954L140.752 105.132L140.97 104.361L141.63 102.109H142.893L143.552 104.361L143.937 105.954L144.267 104.361L144.815 102.109H146.352L144.593 108.313L143.285 108.317ZM148.945 103.543L148.726 103.706L148.563 103.869L148.4 104.143L148.289 104.472L148.234 104.802V105.187V105.573L148.289 105.958L148.4 106.232L148.563 106.506L148.726 106.724L148.945 106.887L149.219 106.943L149.493 106.999L149.767 106.943L149.986 106.887L150.204 106.724L150.371 106.506L150.534 106.232L150.645 105.958L150.701 105.573V105.187V104.802L150.645 104.472L150.534 104.143L150.371 103.869L150.204 103.706L149.986 103.543L149.767 103.432H149.493H149.219L148.945 103.543ZM148.889 108.373L148.341 108.21L147.849 107.936L147.463 107.55L147.134 107.058L146.86 106.51L146.693 105.906L146.637 105.191L146.693 104.532L146.86 103.928L147.134 103.38L147.463 102.887L147.849 102.502L148.341 102.228L148.889 102.009L149.493 101.954L150.041 102.009L150.59 102.228L151.082 102.502L151.467 102.887L151.853 103.38L152.071 103.928L152.234 104.532L152.29 105.191L152.234 105.906L152.071 106.51L151.853 107.058L151.467 107.55L151.082 107.936L150.59 108.21L150.041 108.373L149.493 108.428L148.889 108.373ZM117.083 108.317L115.764 105.406L114.994 106.45V108.317H113.457V100.302L114.994 99.5312V104.472L115.542 103.702L116.75 102.109H118.561L116.912 104.139L118.779 108.313L117.083 108.317ZM126.476 108.317V104.858V104.528L126.421 104.198L126.31 103.924L126.199 103.761L126.036 103.598L125.869 103.487L125.65 103.376H125.376H125.102L124.828 103.487L124.665 103.598L124.502 103.761L124.339 103.98L124.284 104.198L124.228 104.528L124.172 104.858V108.317H122.635V102.113H124.172V102.606L124.502 102.331L124.887 102.113L125.272 102.002L125.765 101.946L126.258 102.002L126.75 102.165L127.136 102.383L127.465 102.657L127.684 103.098L127.847 103.591L127.958 104.139L128.013 104.798V108.313H126.476V108.317ZM131.366 103.432L131.147 103.543L130.984 103.706L130.817 103.924L130.706 104.198L130.651 104.639L130.595 105.08L130.651 105.628L130.706 106.069L130.817 106.399L130.984 106.673L131.203 106.836L131.366 106.947L131.584 107.002H131.747H132.132L132.406 106.839L132.681 106.621L132.844 106.402V103.987L132.681 103.769L132.462 103.606L132.132 103.443L131.747 103.387H131.584L131.366 103.432ZM130.817 109.636H130.873L131.532 109.58L132.025 109.469L132.355 109.251L132.629 109.032L132.74 108.814L132.851 108.539V107.991V107.828L132.577 108.102L132.192 108.265L131.862 108.428H131.477L130.929 108.373L130.436 108.21L130.051 107.936L129.665 107.55L129.391 107.11L129.228 106.506L129.117 105.847L129.062 105.132L129.117 104.417L129.228 103.813L129.447 103.265L129.721 102.824L130.051 102.439L130.491 102.165L130.932 102.002L131.48 101.946L131.866 102.002L132.251 102.113L132.581 102.276L132.855 102.55V102.109H134.392V107.71L134.336 108.425L134.225 109.084L134.007 109.632L133.844 109.851L133.681 110.014L133.462 110.232L133.244 110.395L132.695 110.614L132.092 110.777L131.377 110.832L130.817 109.636ZM119.72 102.113H121.257V108.317H119.72V102.113ZM119.72 99.6979H121.257V101.235H119.72V99.6979ZM158.061 108.317V100.302L159.598 99.5312V108.317H158.061Z" fill="white"/>
</svg>
