<svg width="200" height="131" viewBox="0 0 200 131" fill="none" xmlns="http://www.w3.org/2000/svg">
<path d="M110.851 58.1873C110.851 59.8272 109.53 61.1482 107.89 61.1482C106.25 61.1482 104.929 59.8272 104.929 58.1873C104.929 56.5474 106.204 55.2264 107.89 55.2264C109.575 55.272 110.851 56.593 110.851 58.1873ZM98.6426 64.1547C98.6426 64.428 98.6426 64.8835 98.6426 64.8835C98.6426 64.8835 97.2305 63.0614 94.224 63.0614C89.2588 63.0614 85.3868 66.8423 85.3868 72.0808C85.3868 77.2737 89.2132 81.1001 94.224 81.1001C97.276 81.1001 98.6426 79.2325 98.6426 79.2325V80.0069C98.6426 80.3713 98.9159 80.6446 99.2803 80.6446H102.97V63.5169C102.97 63.5169 99.5992 63.5169 99.2803 63.5169C98.9159 63.5169 98.6426 63.8358 98.6426 64.1547ZM98.6426 75.1328C97.9593 76.1349 96.5927 77.0004 94.9528 77.0004C92.0375 77.0004 89.8054 75.1783 89.8054 72.0808C89.8054 68.9832 92.0375 67.1611 94.9528 67.1611C96.5472 67.1611 98.0048 68.0722 98.6426 69.0288V75.1328ZM105.703 63.5169H110.076V80.6446H105.703V63.5169ZM171.025 63.0614C168.019 63.0614 166.607 64.8835 166.607 64.8835V55.272H162.234V80.6446C162.234 80.6446 165.605 80.6446 165.923 80.6446C166.288 80.6446 166.561 80.3258 166.561 80.0069V79.2325C166.561 79.2325 167.973 81.1001 170.98 81.1001C175.945 81.1001 179.817 77.2737 179.817 72.0808C179.817 66.8878 175.945 63.0614 171.025 63.0614ZM170.296 76.9549C168.611 76.9549 167.29 76.0894 166.607 75.0872V68.9832C167.29 68.0722 168.748 67.1156 170.296 67.1156C173.212 67.1156 175.444 68.9377 175.444 72.0352C175.444 75.1328 173.212 76.9549 170.296 76.9549ZM159.956 70.4864V80.6902H155.583V70.9875C155.583 68.1633 154.672 67.0245 152.212 67.0245C150.891 67.0245 149.525 67.7078 148.659 68.7099V80.6446H144.286V63.5169H147.748C148.112 63.5169 148.386 63.8358 148.386 64.1547V64.8835C149.661 63.5625 151.347 63.0614 153.032 63.0614C154.945 63.0614 156.54 63.608 157.815 64.7013C159.364 65.9768 159.956 67.6166 159.956 70.4864ZM133.672 63.0614C130.666 63.0614 129.254 64.8835 129.254 64.8835V55.272H124.881V80.6446C124.881 80.6446 128.252 80.6446 128.57 80.6446C128.935 80.6446 129.208 80.3258 129.208 80.0069V79.2325C129.208 79.2325 130.62 81.1001 133.627 81.1001C138.592 81.1001 142.464 77.2737 142.464 72.0808C142.51 66.8878 138.638 63.0614 133.672 63.0614ZM132.944 76.9549C131.258 76.9549 129.937 76.0894 129.254 75.0872V68.9832C129.937 68.0722 131.395 67.1156 132.944 67.1156C135.859 67.1156 138.091 68.9377 138.091 72.0352C138.091 75.1328 135.859 76.9549 132.944 76.9549ZM121.1 63.0614C122.421 63.0614 123.104 63.2892 123.104 63.2892V67.3433C123.104 67.3433 119.46 66.1134 117.182 68.7099V80.6902H112.809V63.5169C112.809 63.5169 116.18 63.5169 116.499 63.5169C116.864 63.5169 117.137 63.8358 117.137 64.1547V64.8835C117.957 63.9269 119.733 63.0614 121.1 63.0614ZM75.6842 79.0958C75.4564 78.5492 75.2287 77.957 75.0009 77.456C74.6365 76.636 74.2721 75.8616 73.9532 75.1328L73.9076 75.0872C70.7645 68.2544 67.3937 61.3304 63.8406 54.4976L63.7039 54.2242C63.3395 53.541 62.9751 52.8121 62.6107 52.0833C62.1551 51.2633 61.6996 50.3979 60.9708 49.5779C59.5131 47.7558 57.4177 46.7537 55.1856 46.7537C52.908 46.7537 50.8582 47.7558 49.3549 49.4868C48.6716 50.3067 48.1706 51.1722 47.715 51.9922C47.3506 52.721 46.9862 53.4499 46.6218 54.1331L46.4851 54.4065C42.9776 61.2393 39.5612 68.1633 36.4181 74.9961L36.3725 75.0872C36.0537 75.8161 35.6892 76.5905 35.3248 77.4104C35.0971 77.9115 34.8693 78.4581 34.6415 79.0503C34.0493 80.7357 33.8671 82.3301 34.0949 83.9699C34.596 87.3864 36.8736 90.2562 40.0167 91.5316C41.2011 92.0327 42.431 92.2605 43.7064 92.2605C44.0709 92.2605 44.5264 92.2149 44.8908 92.1694C46.394 91.9872 47.9428 91.4861 49.446 90.6206C51.3137 89.5729 53.0902 88.0697 55.0945 85.8831C57.0988 88.0697 58.9209 89.5729 60.743 90.6206C62.2462 91.4861 63.795 91.9872 65.2983 92.1694C65.6627 92.2149 66.1182 92.2605 66.4826 92.2605C67.7581 92.2605 69.0335 92.0327 70.1724 91.5316C73.361 90.2562 75.5931 87.3408 76.0942 83.9699C76.4586 82.3756 76.2764 80.7813 75.6842 79.0958ZM55.1401 81.4646C52.6803 78.367 51.0859 75.4517 50.5393 72.9918C50.3115 71.9441 50.266 71.0331 50.4026 70.2131C50.4937 69.4843 50.767 68.8466 51.1315 68.2999C51.997 67.07 53.4546 66.2956 55.1401 66.2956C56.8255 66.2956 58.3287 67.0245 59.1487 68.2999C59.5131 68.8466 59.7864 69.4843 59.8775 70.2131C60.0142 71.0331 59.9686 71.9897 59.7409 72.9918C59.1942 75.4061 57.5999 78.3214 55.1401 81.4646ZM73.3155 83.6055C72.9966 85.9742 71.4023 88.0241 69.1702 88.9352C68.0769 89.3907 66.8926 89.5273 65.7082 89.3907C64.5694 89.254 63.4306 88.8896 62.2462 88.2063C60.6064 87.2953 58.9665 85.8831 57.0533 83.7877C60.0597 80.098 61.8818 76.7271 62.5651 73.7207C62.884 72.3085 62.9295 71.0331 62.7929 69.8487C62.6107 68.7099 62.2007 67.6622 61.563 66.7512C60.1508 64.7013 57.7821 63.5169 55.1401 63.5169C52.498 63.5169 50.1293 64.7468 48.7172 66.7512C48.0795 67.6622 47.6695 68.7099 47.4873 69.8487C47.3051 71.0331 47.3506 72.3541 47.715 73.7207C48.3983 76.7271 50.266 80.1435 53.2269 83.8333C51.3592 85.9287 49.6738 87.3408 48.0339 88.2519C46.8495 88.9352 45.7107 89.2996 44.5719 89.4362C43.342 89.5729 42.1577 89.3907 41.1099 88.9807C38.8779 88.0697 37.2836 86.0198 36.9647 83.6511C36.828 82.5123 36.9191 81.3735 37.3747 80.098C37.5113 79.6425 37.7391 79.1869 37.9669 78.6403C38.2857 77.9115 38.6501 77.1371 39.0145 76.3627L39.0601 76.2716C42.2032 69.4843 45.5741 62.5603 49.0816 55.8186L49.2183 55.5453C49.5827 54.862 49.9471 54.1331 50.3115 53.4499C50.6759 52.721 51.0859 52.0377 51.587 51.4456C52.5436 50.3523 53.8191 49.7601 55.2312 49.7601C56.6433 49.7601 57.9188 50.3523 58.8754 51.4456C59.3764 52.0377 59.7864 52.721 60.1508 53.4499C60.5153 54.1331 60.8797 54.862 61.2441 55.5453L61.3807 55.8186C64.8427 62.6059 68.2136 69.5298 71.3567 76.3171V76.3627C71.7211 77.0915 72.04 77.9115 72.4044 78.6403C72.6322 79.1869 72.8599 79.6425 72.9966 80.098C73.361 81.2824 73.4977 82.4212 73.3155 83.6055Z" fill="white"/>
</svg>
