<svg width="200" height="131" viewBox="0 0 200 131" fill="none" xmlns="http://www.w3.org/2000/svg">
<path d="M178.959 76.0449C178.959 76.8732 178.35 77.4291 177.631 77.4291V77.424C176.89 77.4291 176.293 76.8732 176.293 76.0451C176.293 75.2173 176.89 74.663 177.631 74.663C178.351 74.6628 178.959 75.2171 178.959 76.0449ZM179.497 76.0449C179.497 74.9083 178.614 74.2485 177.631 74.2485C176.64 74.2485 175.757 74.9083 175.757 76.0449C175.757 77.1809 176.64 77.8433 177.631 77.8433C178.615 77.8433 179.497 77.1809 179.497 76.0449ZM177.321 76.1969H177.521L177.984 77.0102H178.493L177.98 76.1626C178.245 76.1438 178.463 76.0175 178.463 75.6606C178.463 75.2171 178.157 75.0746 177.639 75.0746H176.89V77.0102H177.321V76.1969M177.321 75.8692V75.4032H177.62C177.783 75.4032 178.005 75.4163 178.005 75.6151C178.005 75.8314 177.891 75.8692 177.698 75.8692H177.321Z" fill="white"/>
<path d="M166.927 66.1435L169.255 72.5114H164.527L166.927 66.1435ZM164.434 63.6641L159.07 77.255H162.858L163.706 74.8535H170.054L170.857 77.255H174.969L169.565 63.6623L164.434 63.6641ZM153.665 77.2601H157.508V63.6599L153.664 63.659L153.665 77.2601ZM126.986 63.659L123.78 74.4382L120.709 63.6599L116.562 63.659L120.949 77.2601H126.485L130.907 63.659H126.986ZM142.52 66.6206H144.172C146.568 66.6206 148.118 67.6963 148.118 70.4881C148.118 73.2805 146.568 74.3565 144.172 74.3565H142.52V66.6206ZM138.709 63.659V77.2601H144.94C148.259 77.2601 149.343 76.7084 150.515 75.4705C151.343 74.6014 151.878 72.6941 151.878 70.6091C151.878 68.6968 151.425 66.9922 150.635 65.93C149.211 64.0304 147.161 63.659 144.101 63.659H138.709ZM102.307 63.6401V77.2601H106.182V66.9184L109.185 66.9193C110.179 66.9193 110.888 67.167 111.367 67.6785C111.974 68.3254 112.222 69.3695 112.222 71.2794V77.2601H115.977V69.735C115.977 64.3643 112.554 63.6401 109.205 63.6401H102.307ZM132.525 63.659L132.526 77.2601H136.367V63.659H132.525Z" fill="white"/>
<path d="M39.5853 67.3266C39.5853 67.3266 44.5279 60.0341 54.3967 59.2797V56.634C43.4658 57.5119 34 66.7699 34 66.7699C34 66.7699 39.3613 82.2683 54.3967 83.6874V80.8752C43.363 79.4871 39.5853 67.3266 39.5853 67.3266ZM54.3967 75.2824V77.8579C46.0577 76.3712 43.743 67.7026 43.743 67.7026C43.743 67.7026 47.7469 63.2671 54.3967 62.5478V65.3739C54.3917 65.3739 54.3882 65.3723 54.384 65.3723C50.8938 64.9535 48.1673 68.214 48.1673 68.214C48.1673 68.214 49.6955 73.7028 54.3967 75.2824ZM54.3967 51.7542V56.634C54.7176 56.6094 55.0385 56.5885 55.3612 56.5775C67.7885 56.1587 75.8857 66.7699 75.8857 66.7699C75.8857 66.7699 66.5858 78.0784 56.8968 78.0784C56.0089 78.0784 55.1775 77.996 54.3967 77.8576V80.8752C55.0644 80.96 55.7567 81.0098 56.4791 81.0098C65.4953 81.0098 72.0156 76.4052 78.3291 70.9554C79.3759 71.7938 83.6614 73.8333 84.5424 74.7261C78.5393 79.752 64.5489 83.8033 56.6172 83.8033C55.8527 83.8033 55.1185 83.757 54.3967 83.6874V87.9276H88.6667V51.7542H54.3967ZM54.3967 62.5478V59.2799C54.7143 59.2577 55.0343 59.2406 55.3612 59.2303C64.2976 58.9496 70.1605 66.9098 70.1605 66.9098C70.1605 66.9098 63.828 75.7046 57.0383 75.7046C56.0611 75.7046 55.185 75.5475 54.3965 75.2824V65.3739C57.8755 65.7942 58.5757 67.331 60.6673 70.8177L65.3191 66.8953C65.3191 66.8953 61.9234 62.4418 56.1991 62.4418C55.5768 62.4415 54.9814 62.4852 54.3967 62.5478Z" fill="white"/>
</svg>
