<svg width="200" height="131" viewBox="0 0 200 131" fill="none" xmlns="http://www.w3.org/2000/svg">
<path d="M118.679 61.643L127.049 58.6986L118.679 55.6701V51.5479L133.015 57.0161V60.3811L118.679 65.8494V61.643Z" fill="white"/>
<path d="M39.5208 87.7214C36.4933 87.7214 34 86.2913 34 83.0945V82.9262C34 79.0564 37.5618 77.7104 41.925 77.7104H43.973V76.9532C43.973 75.3548 43.2607 74.4294 41.4798 74.4294C39.877 74.4294 39.0755 75.2707 38.9865 76.4485H34.5343C34.8904 72.9152 37.8289 71.2326 41.7469 71.2326C45.7539 71.2326 48.6924 72.831 48.6924 76.785V87.3849H44.1511V85.5342C43.2607 86.7119 41.7469 87.7214 39.5208 87.7214ZM43.973 82.1691V80.6548H42.1031C39.7879 80.6548 38.6303 81.2437 38.6303 82.6738V82.8421C38.6303 83.9357 39.3427 84.6929 40.9455 84.6929C42.5483 84.6088 43.973 83.7675 43.973 82.1691ZM59.2887 87.7214C54.6584 87.7214 51.2747 85.0294 51.2747 79.6453V79.3929C51.2747 74.0088 54.8365 71.1485 59.2887 71.1485C63.1176 71.1485 66.2342 72.9993 66.5904 77.1215H62.1381C61.871 75.6072 60.9806 74.5977 59.3777 74.5977C57.4188 74.5977 55.994 76.112 55.994 79.2247V79.7294C55.994 82.9262 57.2407 84.3564 59.3777 84.3564C60.9806 84.3564 62.1381 83.2627 62.4053 81.4961H66.6794C66.4123 85.1976 63.83 87.7214 59.2887 87.7214ZM76.7415 87.7214C72.1111 87.7214 68.7274 85.0294 68.7274 79.6453V79.3929C68.7274 74.0088 72.2892 71.1485 76.7415 71.1485C80.5704 71.1485 83.687 72.9993 84.0431 77.1215H79.5909C79.3238 75.6072 78.4333 74.5977 76.8305 74.5977C74.8715 74.5977 73.4468 76.112 73.4468 79.2247V79.7294C73.4468 82.9262 74.6934 84.3564 76.8305 84.3564C78.4333 84.3564 79.5909 83.2627 79.858 81.4961H84.1322C83.865 85.1976 81.2827 87.7214 76.7415 87.7214ZM94.2833 87.7214C89.4749 87.7214 86.1802 85.0294 86.1802 79.7294V79.3929C86.1802 74.0929 89.653 71.1485 94.1942 71.1485C98.3793 71.1485 101.852 73.3358 101.852 78.6358V80.5707H90.8996C91.0777 83.431 92.4133 84.5246 94.3723 84.5246C96.1532 84.5246 97.1327 83.5992 97.4889 82.5056H101.852C101.318 85.45 98.6465 87.7214 94.2833 87.7214ZM90.9886 77.6263H97.2218C97.1327 75.2707 95.9751 74.2612 94.1052 74.2612C92.6805 74.3453 91.3448 75.1025 90.9886 77.6263ZM104.702 71.5691H109.421V73.9247C110.222 72.4104 111.914 71.2326 114.496 71.2326C117.524 71.2326 119.572 72.9993 119.572 76.785V87.3849H114.853V77.458C114.853 75.6072 114.051 74.766 112.359 74.766C110.757 74.766 109.421 75.6913 109.421 77.7104V87.3849H104.702V71.5691ZM128.209 66.7739V71.5691H131.415V74.8501H128.209V82.3373C128.209 83.5151 128.744 84.104 129.901 84.104C130.614 84.104 131.059 84.0199 131.504 83.8516V87.3008C130.97 87.4691 129.99 87.6373 128.833 87.6373C125.182 87.6373 123.49 86.0389 123.49 82.8421V74.8501H121.531V71.5691H123.49V68.6247L128.209 66.7739ZM149.046 87.3849H144.415V85.0294C143.614 86.5437 142.011 87.7214 139.518 87.7214C136.49 87.7214 134.264 85.9548 134.264 82.2532V71.5691H138.984V81.6643C138.984 83.5151 139.785 84.3564 141.388 84.3564C142.991 84.3564 144.326 83.3469 144.326 81.412V71.5691H149.046V87.3849ZM152.519 71.5691H157.238V74.5136C158.217 72.4104 159.82 71.4009 162.313 71.4009V75.7755C159.108 75.7755 157.238 76.7009 157.238 79.3088V87.4691H152.519V71.5691ZM171.841 87.7214C167.033 87.7214 163.738 85.0294 163.738 79.7294V79.3929C163.738 74.0929 167.211 71.1485 171.752 71.1485C175.937 71.1485 179.41 73.3358 179.41 78.6358V80.5707H168.547C168.725 83.431 170.06 84.5246 172.019 84.5246C173.8 84.5246 174.78 83.5992 175.136 82.5056H179.499C178.787 85.45 176.204 87.7214 171.841 87.7214ZM168.458 77.6263H174.78C174.691 75.2707 173.533 74.2612 171.663 74.2612C170.238 74.3453 168.903 75.1025 168.458 77.6263Z" fill="white"/>
</svg>
