<svg width="200" height="131" viewBox="0 0 200 131" fill="none" xmlns="http://www.w3.org/2000/svg">
<path d="M63.0546 73.9758C60.5717 73.9758 58.4915 71.8285 58.5586 69.1444C58.5586 66.5274 60.6388 64.3801 63.1217 64.3801C65.6045 64.3801 67.6847 66.5274 67.6176 69.2115C67.6176 71.8285 65.5374 73.9758 63.0546 73.9758ZM63.1217 59.5486C57.8205 59.4815 53.4588 63.7761 53.4588 69.1444C53.3917 74.4456 57.6863 78.8073 63.0546 78.8073C68.3557 78.8744 72.7174 74.5798 72.7174 69.2115C72.7174 63.8432 68.4228 59.6157 63.1217 59.5486Z" fill="white"/>
<path d="M72.3838 78.5391H78.4231L81.7112 73.7747L84.9321 78.6062L90.9043 78.6733L84.7308 69.3459L91.0385 60.0857H85.0663L81.7783 64.85L78.4902 60.0186H72.518L78.6915 69.2788L72.3838 78.5391Z" fill="white"/>
<path d="M47.7562 59.8176L43.6629 67.5345L39.7709 59.7505H34L43.5958 78.6065L53.46 59.8847L47.7562 59.8176Z" fill="white"/>
<path d="M153.747 60.5288L153.624 79.0493L158.791 79.0837L158.914 60.5632L153.747 60.5288Z" fill="white"/>
<path d="M131.505 78.9409L131.572 74.2436L122.781 74.1765V71.8279L130.901 71.895L130.968 67.3991L122.781 67.332V65.0505H131.639V60.3532L117.413 60.2861L117.346 78.8067L131.505 78.9409Z" fill="white"/>
<path d="M141.501 74.3108H139.354L139.421 65.1847H141.569C144.119 65.1847 146.132 67.2649 146.132 69.7478C146.132 72.2306 144.051 74.3108 141.501 74.3108ZM142.038 60.4875L134.254 60.4204L134.12 78.9409L141.904 79.008C147.004 79.0751 151.231 74.9147 151.231 69.8149C151.299 64.6479 147.138 60.4875 142.038 60.4875Z" fill="white"/>
<path d="M167.941 72.9681L170.29 66.1236L172.571 72.9681H167.941ZM174.584 79.2087L179.952 79.2758L173.376 60.6882L167.337 60.6211L160.56 79.0745L165.928 79.1416L166.666 77.1285L173.98 77.1956L174.584 79.2087Z" fill="white"/>
<path d="M93.3887 78.6729H98.5556L98.6227 68.4732L103.857 78.74L109.292 68.5403L109.225 78.74L114.392 78.8071L114.459 60.2866L108.017 60.2194L103.991 67.9363L100.032 60.1523H93.5229L93.3887 78.6729Z" fill="white"/>
</svg>
