<svg width="200" height="131" viewBox="0 0 200 131" fill="none" xmlns="http://www.w3.org/2000/svg">
<path d="M45.409 59.9688C43.6923 59.9688 43.1959 60.7303 43.1959 62.4097V65.1957H47.7752L47.3162 69.6967H43.1977V83.3562H37.7022V69.6967H34V65.1957H37.7022V62.4862C37.7022 57.9461 39.5328 55.5479 44.6405 55.5479C45.7107 55.5454 46.7803 55.6089 47.8428 55.7383V59.9742L45.409 59.9688Z" fill="white"/>
<path d="M48.1562 73.7038C48.1562 68.63 50.5597 64.8086 55.5962 64.8086C58.3431 64.8086 60.0207 66.2212 60.8232 67.9753V65.1964H66.0872V83.3569H60.8232V80.61C60.0599 82.366 58.3431 83.7393 55.5962 83.7393C50.5597 83.7393 48.1562 79.9233 48.1562 74.8442V73.7038ZM53.6499 74.926C53.6499 77.6337 54.6409 79.4269 57.1974 79.4269C59.4496 79.4269 60.5935 77.7867 60.5935 75.1929V73.3694C60.5935 70.7755 59.4496 69.1352 57.1974 69.1352C54.6409 69.1352 53.6499 70.9285 53.6499 73.6362V74.926Z" fill="white"/>
<path d="M77.5307 64.8145C79.6657 64.8145 81.6884 65.2734 82.795 66.0349L81.5745 69.9274C80.4299 69.3823 79.1792 69.0955 77.9116 69.0877C74.9351 69.0877 73.6419 70.8045 73.6419 73.7435V74.8109C73.6419 77.7499 74.9386 79.4666 77.9116 79.4666C79.1792 79.4587 80.4299 79.1721 81.5745 78.627L82.795 82.5177C81.6884 83.281 79.6673 83.74 77.5307 83.74C71.0818 83.74 68.1445 80.2673 68.1445 74.6971V73.8574C68.1445 68.2871 71.0818 64.8145 77.5307 64.8145Z" fill="white"/>
<path d="M83.5215 74.9697V73.3685C83.5215 68.2182 86.4587 64.8291 92.4506 64.8291C98.0973 64.8291 100.577 68.2627 100.577 73.2992V76.199H89.0132C89.129 78.679 90.2356 79.7855 93.2832 79.7855C95.3451 79.7855 97.519 79.3657 99.1219 78.679L100.127 82.4418C98.6771 83.2067 95.7007 83.7777 93.0696 83.7777C86.1152 83.7759 83.5215 80.3068 83.5215 74.9697ZM89.0151 72.6036H95.6545V72.1463C95.6545 70.1627 94.8539 68.5882 92.4522 68.5882C89.9705 68.59 89.0151 70.1556 89.0151 72.5964V72.6036Z" fill="white"/>
<path d="M120.94 74.8497C120.94 79.9235 118.499 83.7449 113.468 83.7449C110.721 83.7449 108.814 82.3716 108.051 80.6156V83.3624H102.863V56.0772L108.357 55.5791V67.7122C109.158 66.1111 110.914 64.8124 113.47 64.8124C118.506 64.8124 120.942 68.6284 120.942 73.7076L120.94 74.8497ZM115.447 73.5902C115.447 71.0337 114.456 69.1265 111.823 69.1265C109.57 69.1265 108.35 70.7277 108.35 73.3233V75.2305C108.35 77.8243 109.57 79.4271 111.823 79.4271C114.456 79.4271 115.447 77.5201 115.447 74.9636V73.5902Z" fill="white"/>
<path d="M122.779 74.7344V73.82C122.779 68.5914 125.756 64.8145 131.822 64.8145C137.889 64.8145 140.867 68.5914 140.867 73.82V74.7344C140.867 79.9613 137.891 83.74 131.824 83.74C125.757 83.74 122.779 79.9613 122.779 74.7344ZM135.371 73.4375C135.371 71.034 134.379 69.1269 131.813 69.1269C129.248 69.1269 128.264 71.034 128.264 73.4375V75.1169C128.264 77.5204 129.257 79.4274 131.813 79.4274C134.37 79.4274 135.371 77.5204 135.371 75.1169V73.4375Z" fill="white"/>
<path d="M142.695 74.7344V73.82C142.695 68.5914 145.672 64.8145 151.738 64.8145C157.805 64.8145 160.781 68.5914 160.781 73.82V74.7344C160.781 79.9613 157.805 83.74 151.738 83.74C145.672 83.74 142.695 79.9613 142.695 74.7344ZM155.287 73.4375C155.287 71.034 154.295 69.1269 151.738 69.1269C149.182 69.1269 148.191 71.034 148.191 73.4375V75.1169C148.191 77.5204 149.182 79.4274 151.738 79.4274C154.295 79.4274 155.287 77.5204 155.287 75.1169V73.4375Z" fill="white"/>
<path d="M168.333 73.857L173.751 65.1966H179.588L173.904 74.163L179.817 83.357H173.98L168.333 74.4619V83.357H162.838V56.0772L168.333 55.5791V73.857Z" fill="white"/>
</svg>
