<svg width="200" height="131" viewBox="0 0 200 131" fill="none" xmlns="http://www.w3.org/2000/svg">
<path d="M54.0065 85.5962C51.8178 85.9498 49.5906 86.0558 47.2866 86.3382L40.2592 67.4037V87.1508C38.0704 87.3627 36.0736 87.6453 34 87.9279V51.7544H39.837L47.8241 72.2789V51.7544H54.0065V85.5962ZM66.1027 65.0015C68.4837 65.0015 72.1317 64.8955 74.3204 64.8955V70.5475C71.5939 70.5475 68.4068 70.5475 66.1027 70.6535V79.0612C69.7125 78.8493 73.3221 78.5664 76.97 78.4604V83.9002L59.9585 85.1369V51.7544H76.97V57.4065H66.1027V65.0015ZM99.8182 57.4066H93.4438V83.4063C91.3701 83.4063 89.2965 83.4063 87.3 83.4767V57.4066H80.9256V51.7544H99.8184L99.8182 57.4066ZM109.802 64.613H118.212V70.265H109.802V83.0884H103.773V51.7544H120.938V57.4065H109.802V64.613ZM130.922 78.1426C134.417 78.2131 137.95 78.4608 141.367 78.6371V84.2187C135.876 83.9005 130.385 83.583 124.778 83.4767V51.7544H130.922V78.1426ZM146.551 84.6073C148.51 84.7134 150.583 84.8194 152.58 85.031V51.7544H146.551V84.6073ZM179.499 51.7544L171.704 68.958L179.499 87.9279C177.194 87.6453 174.891 87.2567 172.587 86.9034L168.171 76.4472L163.678 86.0558C161.451 85.7022 159.3 85.5962 157.074 85.3136L164.984 68.7459L157.841 51.7544H164.446L168.478 61.257L172.779 51.7544H179.499Z" fill="white"/>
</svg>
